<svg width="72" height="80" viewBox="0 0 72 80" fill="none" xmlns="http://www.w3.org/2000/svg">
<path d="M71.6668 52.3353V43.9434C71.6553 43.4891 71.5153 41.9261 70.1381 40.8946C69.5009 40.4203 68.8351 40.2403 68.3065 40.1803C69.2323 34.9685 70.5781 21.0905 61.4147 10.7012C55.9743 4.5351 47.6566 0.663419 38.5932 0.0776668C29.6297 -0.499514 20.8092 2.16066 14.3859 7.37814C13.8316 7.8296 13.7459 8.64394 14.1973 9.20112C14.6488 9.75544 15.4631 9.84116 16.0203 9.3897C28.4525 -0.708098 49.1624 0.734852 59.4717 12.4156C68.1722 22.2791 66.5321 35.7085 65.6778 40.1574H62.8748C62.1604 40.1574 61.5804 40.7374 61.5804 41.4518C61.5804 42.1661 62.1604 42.7462 62.8748 42.7462H66.7264H66.7293H66.7321H67.7094L67.7836 42.7433C67.9237 42.7376 68.278 42.7404 68.5866 42.9719C69.0466 43.3148 69.0723 43.9319 69.0723 43.9719V52.3668L69.0752 52.4411C69.078 52.4782 69.118 53.3297 68.5523 53.7526C68.2408 53.984 67.8837 54.004 67.7094 53.9983H62.8748C62.1604 53.9983 61.5804 54.5783 61.5804 55.2927V56.2327L61.5832 56.307C61.6575 57.6271 61.1432 58.7729 60.2689 59.2272C59.8403 59.4501 59.3888 59.4644 59.0831 59.4358L52.1741 59.4301C51.7683 59.4244 51.3997 59.3358 51.0826 59.1644C49.7196 58.43 49.6596 56.3185 49.6596 56.3013V40.3546L49.651 40.2174C49.6368 40.0888 49.5425 38.943 50.3882 38.1259C50.9883 37.543 51.7283 37.4487 52.0369 37.4372H55.4057C55.4057 37.4372 55.4057 37.4372 55.4086 37.4372C55.4971 37.4372 55.5829 37.4287 55.6657 37.4115C55.6857 37.4087 55.7029 37.4001 55.7229 37.3944C55.7857 37.3772 55.8486 37.3629 55.9057 37.3372C55.9372 37.3229 55.9657 37.3058 55.9972 37.2887C56.04 37.2658 56.0857 37.2458 56.1257 37.2172C56.1515 37.2001 56.1715 37.1801 56.1943 37.1629C56.2372 37.1286 56.28 37.0972 56.32 37.0601C56.3372 37.0429 56.3486 37.0229 56.3658 37.0058C56.4058 36.9629 56.4458 36.9172 56.4801 36.8686C56.5029 36.8343 56.5201 36.7972 56.5401 36.76C56.5601 36.7229 56.5829 36.6886 56.6001 36.6486C56.6344 36.5686 56.6601 36.4857 56.6772 36.4C57.4458 32.5998 58.0887 25.3507 53.7599 19.4989C50.0654 14.5015 43.4221 11.5356 35.9587 11.5356C35.8902 11.5356 35.8216 11.5356 35.7501 11.5356C28.2982 11.5898 21.6949 14.6243 18.089 19.6532C13.9202 25.4622 14.6202 32.6369 15.4117 36.4029C15.4117 36.4057 15.4117 36.4057 15.4117 36.4086V36.4115C15.4288 36.4915 15.4517 36.5686 15.4831 36.64C15.4917 36.6629 15.506 36.68 15.5145 36.7029C15.5403 36.7543 15.566 36.8058 15.5945 36.8515C15.6088 36.8743 15.626 36.8943 15.6431 36.9172C15.6746 36.9601 15.706 37.0001 15.7403 37.0372C15.7603 37.0601 15.7831 37.0772 15.806 37.0972C15.8431 37.1286 15.8774 37.1601 15.9174 37.1886C15.9431 37.2086 15.9689 37.2258 15.9974 37.2429C16.0374 37.2687 16.0803 37.2915 16.1232 37.3115C16.1517 37.3258 16.1803 37.3401 16.2089 37.3515C16.2574 37.3715 16.3089 37.3858 16.3632 37.4001C16.3889 37.4058 16.4117 37.4144 16.4375 37.4201C16.5175 37.4344 16.5975 37.4458 16.6803 37.4458H16.6832H19.9634C20.272 37.4572 21.012 37.5515 21.6149 38.1344C22.4607 38.9516 22.3636 40.1003 22.3521 40.2288L22.3464 40.2974V56.287C22.3436 56.3756 22.2893 58.4386 20.9178 59.1758C20.6006 59.3472 20.2377 59.4358 19.8491 59.4415H13.0287L12.9115 59.4329C12.6086 59.4615 12.1572 59.4444 11.7257 59.2215C10.8514 58.77 10.3342 57.6243 10.4085 56.3042L10.4114 55.2927C10.4114 54.5783 9.83132 53.9983 9.11698 53.9983H4.25095C4.10809 54.0012 3.75092 53.984 3.44233 53.7554C2.87372 53.3297 2.91658 52.4811 2.91658 52.4811L2.9223 43.9777C2.9223 43.9519 2.93658 43.3262 3.40519 42.9776C3.71378 42.749 4.06809 42.7433 4.20809 42.749H5.25388C5.26245 42.749 5.27102 42.7519 5.27673 42.7519C5.28245 42.7519 5.28816 42.749 5.29674 42.749L9.11984 42.7519C9.83417 42.7519 10.4142 42.1718 10.4142 41.4575C10.4142 40.7432 9.83417 40.1631 9.11984 40.1631H6.34823C5.66819 36.2914 4.4424 25.2707 10.2199 15.9673C10.5971 15.3587 10.4114 14.5615 9.80274 14.1843C9.19413 13.8071 8.39694 13.9929 8.01977 14.6015C1.97938 24.3221 2.99373 35.6828 3.72521 40.1831C3.19089 40.2374 2.51084 40.4174 1.85937 40.9032C0.407848 41.9861 0.333557 43.6548 0.333557 43.9777V52.3325C0.310698 52.7639 0.304984 54.6469 1.89366 55.8356C2.768 56.487 3.69949 56.5956 4.20238 56.5956C4.23095 56.5956 4.25953 56.5956 4.28524 56.5956H7.8169C7.82833 58.7615 8.8684 60.6702 10.5399 61.5331C11.3143 61.9331 12.0829 62.0445 12.6915 62.0445C12.8315 62.0445 12.9629 62.0388 13.083 62.0303H19.8634C20.6892 62.0188 21.4578 61.8245 22.1435 61.4559C24.7866 60.0358 24.9266 56.7099 24.9352 56.3127V40.426C24.9809 39.866 25.0209 37.8287 23.4151 36.2714C22.1493 35.0514 20.6234 34.8742 20.0263 34.8571H17.7547C17.1632 31.3454 16.9432 25.705 20.1948 21.1733C23.3179 16.8016 29.1411 14.17 35.7673 14.1214C42.4992 14.0843 48.4367 16.6559 51.674 21.0362C55.0542 25.605 54.8914 31.2997 54.3228 34.8456H52.0141H51.9741C51.3769 34.8656 49.8511 35.0399 48.5881 36.2629C46.9823 37.8173 47.0223 39.8545 47.0709 40.4146V56.3013C47.0709 56.4499 47.1023 59.9616 49.8568 61.4445C50.5454 61.816 51.314 62.0103 52.1598 62.0217H58.9174C59.0488 62.0331 59.1831 62.036 59.3117 62.036C59.3231 62.036 59.3317 62.0331 59.3431 62.0331C59.0059 63.7704 58.3573 65.3476 57.4087 66.7391C52.6398 73.7339 42.2906 72.6567 42.1877 72.6452L40.2533 72.4281L40.799 74.2968C40.9733 74.8997 41.1105 75.7426 40.759 76.3398C40.119 77.4313 37.7617 77.4227 35.2673 77.4141C33.2043 77.4084 30.8641 77.3998 30.3384 76.5055C30.2012 76.274 30.2012 75.1711 30.2012 73.9996C30.2012 72.6367 30.2012 71.6537 30.3555 71.328C30.8898 70.2079 34.2158 69.9708 36.4102 70.2308C37.1217 70.3165 37.7646 69.8079 37.8503 69.0964C37.936 68.385 37.4274 67.7421 36.7159 67.6563C35.5358 67.5163 29.5612 66.9792 28.0182 70.2108C27.6096 71.0651 27.6096 72.0452 27.6096 74.0025C27.6096 75.9854 27.6096 76.9798 28.1039 77.817C29.3783 79.9828 32.3671 79.9914 35.2587 80C35.4701 80 35.6816 80 35.8901 80C38.9132 80 41.6905 79.8628 42.9935 77.6427C43.3906 76.9655 43.5821 76.174 43.5649 75.3026C47.0566 75.3454 55.12 74.6911 59.5488 68.1935C60.9518 66.1362 61.8004 63.7589 62.0919 61.1245C63.3891 60.1473 64.172 58.4615 64.1834 56.5842H67.6865C67.7151 56.5842 67.7436 56.5842 67.7751 56.5842C68.3037 56.5842 69.2352 56.4756 70.1067 55.8241C71.3353 54.9127 71.7182 53.4297 71.6668 52.3353Z" fill="#058E3F"/>
</svg>
