<svg width="80" height="80" viewBox="0 0 80 80" fill="none" xmlns="http://www.w3.org/2000/svg">
<path d="M67.9052 11.9925C60.6472 4.67742 50.789 0.334085 40.8736 0.0197646C32.9585 -0.237407 25.1576 2.01998 18.2711 6.50619C12.2705 10.4209 7.32709 15.8215 3.86956 22.2222V16.4787C3.86956 15.7644 3.29807 15.1929 2.58371 15.1929C1.86934 15.1929 1.29785 15.7644 1.29785 16.4787V26.4798C1.29785 27.1942 1.86934 27.7657 2.58371 27.7657H11.6704C12.3848 27.7657 12.9563 27.1942 12.9563 26.4798C12.9563 25.7655 12.3848 25.194 11.6704 25.194H5.21257C11.9847 11.1638 26.1577 2.10571 40.7879 2.5629C60.5044 3.19154 77.1062 20.3649 77.049 40.0813C77.0205 48.1679 74.3059 56.1974 69.3339 62.6838C68.9053 63.2553 69.0196 64.0554 69.5911 64.484C69.8197 64.6554 70.1054 64.7412 70.3626 64.7412C70.7626 64.7412 71.1341 64.5697 71.3913 64.2268C76.6776 57.2832 79.5922 48.7108 79.6208 40.0813C79.6208 29.5659 75.4774 19.5933 67.9052 11.9925Z" fill="#058E3F"/>
<path d="M59.7329 71.599C54.0751 75.2566 47.5887 77.2568 40.9308 77.4283C21.1572 77.9426 4.46965 62.7409 2.92662 42.853C2.86947 42.1387 2.26941 41.6243 1.55504 41.6815C0.840678 41.7386 0.326335 42.3387 0.383484 43.053C1.18357 53.2827 5.81265 62.7123 13.4706 69.656C20.8143 76.3424 30.2153 80 39.9878 80C40.3307 80 40.6736 80 40.988 80C48.1316 79.8285 55.0752 77.6569 61.133 73.7707C61.7331 73.3992 61.9045 72.5991 61.5045 71.9991C61.133 71.3704 60.3329 71.199 59.7329 71.599Z" fill="#058E3F"/>
<path d="M29.4724 47.425C29.2438 46.7678 28.5009 46.4249 27.8436 46.6535C27.1864 46.8821 26.8435 47.625 27.0721 48.2823C28.9866 53.5971 33.2157 57.3118 38.0733 58.0833V61.1122C38.0733 61.8266 38.6448 62.3981 39.3592 62.3981C40.0736 62.3981 40.6451 61.8266 40.6451 61.1122V58.2262C44.8455 57.9976 49.6175 55.6831 51.0748 51.454C52.0463 48.6537 51.532 45.3105 49.8175 42.9388C47.5887 39.8813 43.9883 39.2813 40.6451 38.9669V25.0226C44.2455 25.6226 47.503 28.2229 49.2746 32.0805C49.5603 32.7091 50.3318 32.9949 50.989 32.7091C51.6177 32.4234 51.9034 31.6519 51.6177 30.9946C49.3889 26.2227 45.2741 23.0223 40.6451 22.4223V17.4217C40.6451 16.7074 40.0736 16.1359 39.3592 16.1359C38.6448 16.1359 38.0733 16.7074 38.0733 17.4217V22.3365C34.0443 22.6223 29.6438 24.6797 28.158 28.5087C27.0436 31.3375 27.5293 34.8808 29.3295 37.3382C31.4726 40.2528 34.8444 40.91 38.0733 41.2529V55.4545C34.3301 54.7115 30.9868 51.6255 29.4724 47.425ZM47.7316 44.4247C49.1603 46.3678 49.2174 48.9109 48.6459 50.5968C47.6173 53.5971 43.9597 55.4259 40.6451 55.6259V41.4815C43.5311 41.8244 46.1599 42.3102 47.7316 44.4247ZM31.3869 35.8237C29.901 33.7949 29.8724 31.1375 30.5582 29.4516C31.6155 26.7085 34.9873 25.194 38.0733 24.9083V38.6812C35.3302 38.3955 32.8728 37.8525 31.3869 35.8237Z" fill="#058E3F"/>
</svg>
