<svg width="36" height="36" viewBox="0 0 36 36" fill="none" xmlns="http://www.w3.org/2000/svg">
<path d="M32.209 11.6567C32.2738 11.6591 32.3422 11.6651 32.4142 11.6723V11.6567H32.209ZM32.161 13.6415C32.1778 13.6415 32.197 13.6427 32.215 13.6463C32.215 13.6451 32.215 13.6439 32.2162 13.6415H32.161ZM31.8286 11.6567H32.209C32.0662 11.6495 31.9378 11.6507 31.8286 11.6567ZM31.9138 13.6391L31.8562 13.6415H32.161C32.059 13.6331 31.9738 13.6355 31.9138 13.6391Z" fill="#374151"/>
<path d="M32.161 13.6415C32.1778 13.6415 32.197 13.6427 32.215 13.6463C32.215 13.6451 32.215 13.6439 32.2162 13.6415H32.161ZM35.8006 15.4019V15.7535C35.8042 15.6851 35.8078 15.5627 35.8006 15.4019ZM31.8286 11.6567H32.209C32.0662 11.6495 31.9378 11.6507 31.8286 11.6567Z" fill="#374151"/>
<path d="M33.8159 15.407V15.689L33.8183 15.653C33.8195 15.641 33.8243 15.5474 33.8159 15.407ZM32.2091 11.657C32.2739 11.6594 32.3423 11.6654 32.4143 11.6726V11.657H32.2091ZM31.9139 13.6394L31.8563 13.6418H32.1611C32.0591 13.6334 31.9739 13.6358 31.9139 13.6394Z" fill="#374151"/>
<path d="M34.3089 12.3996C33.6513 11.9028 32.9565 11.724 32.4141 11.6724C32.3421 11.6652 32.2737 11.6592 32.2089 11.6568H31.8285C31.9377 11.6508 32.0649 11.6496 32.2089 11.6568H32.4141C32.2989 7.4436 28.8357 4.0512 24.5961 4.0512C23.1777 4.0512 21.8481 4.4304 20.7009 5.0904V4.572C20.7321 4.0476 20.7033 2.4348 19.3845 1.1784C18.2733 0.1176 16.9461 0 16.4181 0H5.15732C4.60052 0.0108 2.67332 0.1728 1.32092 1.8048C0.503721 2.7924 0.263721 3.8628 0.203721 4.5888L0.201321 4.6284V30.6252C0.177321 31.08 0.128121 33.7512 2.24612 35.2104C2.91212 35.6688 3.71492 35.9412 4.56932 35.9976L4.63412 36H16.3941C16.7613 35.9952 17.1141 35.952 17.4501 35.8656C17.7873 35.7792 18.1065 35.6532 18.4077 35.484C19.3329 34.968 20.0205 34.092 20.3913 33.0168H31.5021C32.1021 33.0084 33.2637 32.8608 34.2981 31.9656C35.7117 30.7428 35.8053 29.07 35.7993 28.5732V15.402C35.7693 14.7168 35.5425 13.3296 34.3089 12.3996ZM32.2149 13.6464C32.1969 13.644 32.1777 13.6416 32.1609 13.6416H31.8561L31.9137 13.6392C31.9737 13.6344 32.0589 13.6332 32.1609 13.6416H32.2161C32.2149 13.644 32.2149 13.6452 32.2149 13.6464C32.4669 13.6704 32.8065 13.7532 33.1137 13.9836C33.6645 14.4 33.7905 15.0528 33.8157 15.4056C33.8241 15.546 33.8205 15.6396 33.8181 15.6528L33.8157 15.6888V16.5468H30.8637C31.4997 15.6972 31.9665 14.7132 32.2149 13.6464ZM2.84972 3.072C3.67532 2.0748 4.92332 1.9932 5.18732 1.986H16.4097C16.6353 1.9908 17.3997 2.028 18.0153 2.616C18.5061 3.084 18.6609 3.6612 18.7065 4.0524H2.32052C2.41892 3.7428 2.58212 3.396 2.84972 3.072ZM2.18612 29.6472V6.0372H18.7161V6.7236C17.5533 8.0496 16.8309 9.7692 16.7805 11.6568V11.6616C16.2681 11.6868 15.2181 11.85 14.3025 12.684C13.4661 13.4484 13.1757 14.3688 13.0725 14.946V14.9472C13.0485 15.0888 13.0353 15.2112 13.0281 15.3036L13.0257 15.342V27.876C13.0161 28.0872 13.0017 28.8048 13.2429 29.6472H2.18612ZM18.3309 16.5468H17.4405C17.1045 16.5216 16.4829 16.4052 15.9117 15.9324C15.5109 15.6024 15.2769 15.216 15.1389 14.892C15.2301 14.6556 15.3825 14.3856 15.6393 14.1516C16.1289 13.7064 16.6953 13.6464 16.9245 13.6428H16.9785C17.2269 14.7096 17.6949 15.696 18.3309 16.5468ZM17.4393 33.7512C17.1333 33.9228 16.7757 34.0104 16.3857 34.0152H4.66892C4.17692 33.978 3.74132 33.8292 3.37172 33.576C2.64932 33.078 2.36372 32.2644 2.25092 31.6332H14.3493C14.5365 31.83 14.7501 32.0172 14.9949 32.19C15.9537 32.8668 16.9629 33.018 17.6769 33.018C17.7141 33.018 17.7477 33.018 17.7813 33.0168H18.1977C17.9949 33.3312 17.7381 33.5832 17.4393 33.7512ZM17.7465 31.0308C17.3265 31.0404 16.7073 30.9684 16.1385 30.5676C15.7785 30.3132 15.5313 29.9844 15.3633 29.6472C14.9601 28.8384 15.0069 27.978 15.0093 27.9672L15.0117 27.936V17.736C15.9213 18.3492 16.8405 18.498 17.3433 18.5292H18.7161V30.8712C18.7185 30.9252 18.7209 30.9792 18.7221 31.032H17.7465V31.0308ZM19.0365 13.6416C18.8589 13.0824 18.7629 12.4884 18.7629 11.8716C18.7629 11.7996 18.7641 11.7264 18.7677 11.6556C18.8277 10.02 19.5621 8.5548 20.7021 7.5312C21.7365 6.6012 23.1021 6.0348 24.5973 6.0348C27.7425 6.0348 30.3153 8.5368 30.4281 11.6544C30.4305 11.7252 30.4329 11.7972 30.4329 11.8704C30.4329 12.4872 30.3369 13.0812 30.1581 13.6404C29.7849 14.8116 29.0505 15.8244 28.0845 16.5444H21.1101C20.9685 16.44 20.8317 16.3272 20.7021 16.2084C19.9377 15.5256 19.3545 14.6424 19.0365 13.6416ZM33.8157 28.6176C33.8157 28.8528 33.7641 29.802 32.9997 30.462C32.4201 30.9636 31.7409 31.0284 31.4877 31.0308H20.7057C20.7057 30.954 20.7033 30.8772 20.6997 30.8016V18.5292L28.6905 18.5304L33.8145 18.5316V20.5752H28.4361C26.4021 20.604 24.6909 22.1676 24.5409 24.1356C24.4617 25.1592 24.8277 26.1984 25.5441 26.988C26.2833 27.8004 27.3369 28.2804 28.4325 28.3008L33.8157 28.3092V28.6176ZM33.8157 22.5612V26.3244L28.4637 26.316C27.9045 26.3028 27.3897 26.0676 27.0129 25.6524C26.6625 25.2672 26.4837 24.7704 26.5209 24.288C26.5917 23.3496 27.4641 22.5732 28.4493 22.5612H33.8157Z" fill="#374151"/>
<path d="M11.4864 32.083H9.49799V33.5014H11.4864V32.083Z" fill="#069E2D"/>
</svg>
