<svg width="34" height="36" viewBox="0 0 34 36" fill="none" xmlns="http://www.w3.org/2000/svg">
<path d="M33.1165 24.4748C33.1165 21.3223 30.6397 18.7374 27.5303 18.5634V7.83022H27.6168C27.6864 7.83743 27.792 7.84463 27.924 7.84463C28.5048 7.84463 29.598 7.70302 30.3564 6.75259C30.7681 6.23777 30.9925 5.57415 30.9877 4.89012V3.06966L30.9853 3.00246C30.9577 2.62204 30.8053 1.65481 29.976 0.875984C29.2092 0.154759 28.3332 0.0191542 27.8784 0.00235365L4.20274 0.00115361C2.83349 -0.0300475 1.66705 0.573573 1.15943 1.57921C0.978226 1.93562 0.884623 2.33163 0.883423 2.75765V5.04253V5.06413C0.893023 5.48894 0.993827 5.88856 1.18223 6.25097C1.96466 7.75222 3.84513 7.82542 4.05633 7.82902H4.39714V33.8195L4.59755 34.0751C5.54799 35.2836 6.56802 35.88 7.62286 35.856C8.58289 35.832 9.20931 35.2932 9.66773 34.8996C10.0613 34.5612 10.2449 34.4195 10.4706 34.4315C10.689 34.4387 10.8402 34.5756 11.1858 34.9368C11.6106 35.3796 12.1914 35.9868 13.1923 36C13.2043 36 13.2151 36 13.2271 36C14.2279 36 14.8303 35.3928 15.2719 34.9476C15.6343 34.5828 15.8047 34.4327 16.0279 34.4315C16.0291 34.4315 16.0303 34.4315 16.0315 34.4315C16.2548 34.4315 16.4264 34.578 16.7912 34.938C17.2364 35.376 17.8436 35.9724 18.8408 35.9724C18.8564 35.9724 18.8732 35.9724 18.8888 35.9724C19.8825 35.952 20.4609 35.3556 20.8845 34.9212C21.2265 34.5695 21.3753 34.4363 21.5889 34.4327C21.8062 34.4243 21.9778 34.5575 22.3486 34.8744C22.7902 35.2512 23.395 35.766 24.3262 35.7972C25.3715 35.8332 26.3795 35.256 27.3239 34.0835L27.5315 33.8267V30.3874C30.6397 30.2122 33.1165 27.6273 33.1165 24.4748ZM4.08033 5.95456C3.82713 5.94856 3.0783 5.83336 2.84429 5.38574C2.79029 5.28254 2.76149 5.16253 2.75669 5.03053V2.76245C2.75669 2.63525 2.78189 2.52364 2.82989 2.42764C3.0051 2.08083 3.54272 1.85882 4.16434 1.87682H27.8208C27.9852 1.88522 28.3668 1.93922 28.6896 2.24283C29.0184 2.55124 29.094 2.93286 29.1108 3.10806V4.89612C29.112 5.04853 29.0844 5.33894 28.8888 5.58255C28.5192 6.04576 27.7968 5.96416 27.7944 5.96416L27.7308 5.95576H27.5292V2.97846H4.39714V5.95576H4.08033V5.95456ZM24.3886 33.9227C24.1234 33.9143 23.923 33.7535 23.5642 33.4475C23.1142 33.0647 22.501 32.5391 21.5505 32.5583C20.5473 32.5775 19.9641 33.1775 19.5381 33.6143C19.1997 33.9623 19.0533 34.0943 18.8492 34.0979C18.8456 34.0979 18.8432 34.0979 18.8408 34.0979C18.6308 34.0979 18.4616 33.9527 18.104 33.6011C17.6552 33.1607 17.042 32.5571 16.0292 32.5571C16.0244 32.5571 16.0183 32.5571 16.0135 32.5571C14.9935 32.5643 14.3839 33.1787 13.9387 33.6275C13.5895 33.9803 13.4251 34.1255 13.2223 34.1255C13.2199 34.1255 13.2187 34.1255 13.2163 34.1255C13.029 34.1231 12.897 34.0139 12.5382 33.6395C12.1134 33.1955 11.5326 32.5883 10.527 32.5571C9.55132 32.5283 8.9117 33.0755 8.44489 33.4763C8.07527 33.7931 7.85326 33.9731 7.57365 33.9803C7.20284 33.9875 6.74803 33.6995 6.27041 33.1559V4.85292H25.6535V18.7566C23.1322 19.4358 21.2709 21.7411 21.2709 24.4748C21.2709 27.2085 23.1322 29.5126 25.6535 30.193V33.1511C25.1915 33.6635 24.7451 33.9335 24.3886 33.9227ZM27.1955 28.5213C24.9635 28.5213 23.149 26.7057 23.149 24.4748C23.149 22.2439 24.9647 20.4283 27.1955 20.4283C29.4264 20.4283 31.2421 22.2439 31.2421 24.4748C31.2421 26.7057 29.4264 28.5213 27.1955 28.5213Z" fill="#374151"/>
<path d="M18.5492 28.3665H8.9069C8.38968 28.3665 7.96967 28.7866 7.96967 29.3038C7.96967 29.821 8.38968 30.241 8.9069 30.241H18.5492C19.0665 30.241 19.4865 29.821 19.4865 29.3038C19.4865 28.7866 19.0665 28.3665 18.5492 28.3665Z" fill="#374151"/>
<path d="M19.4781 24.6488H8.9069C8.38968 24.6488 7.96967 25.0688 7.96967 25.586C7.96967 26.1033 8.38968 26.5233 8.9069 26.5233H19.4781C19.9953 26.5233 20.4153 26.1033 20.4153 25.586C20.4153 25.0688 19.9953 24.6488 19.4781 24.6488Z" fill="#374151"/>
<path d="M19.4781 21.0871H8.9069C8.38968 21.0871 7.96967 21.5071 7.96967 22.0243C7.96967 22.5415 8.38968 22.9616 8.9069 22.9616H19.4781C19.9953 22.9616 20.4153 22.5415 20.4153 22.0243C20.4153 21.5059 19.9953 21.0871 19.4781 21.0871Z" fill="#374151"/>
<path d="M15.9235 17.4077H8.9069C8.38968 17.4077 7.96967 17.8278 7.96967 18.345C7.96967 18.8622 8.38968 19.2822 8.9069 19.2822H15.9235C16.4408 19.2822 16.8608 18.8622 16.8608 18.345C16.8608 17.8278 16.4408 17.4077 15.9235 17.4077Z" fill="#374151"/>
<path d="M15.9643 13.6132H8.9069C8.38968 13.6132 7.96967 14.0332 7.96967 14.5505C7.96967 15.0677 8.38968 15.4877 8.9069 15.4877H15.9643C16.4816 15.4877 16.9016 15.0677 16.9016 14.5505C16.9016 14.032 16.4816 13.6132 15.9643 13.6132Z" fill="#374151"/>
<path d="M18.8972 11.6956H22.6918C23.0614 11.6956 23.3614 11.3956 23.3614 11.0259C23.3614 10.6563 23.0614 10.3563 22.6918 10.3563H18.8972C18.5276 10.3563 18.2276 10.6563 18.2276 11.0259C18.2276 11.3968 18.5276 11.6956 18.8972 11.6956Z" fill="#374151"/>
<path d="M21.6849 19.0614C21.6849 18.8526 21.6849 18.6438 21.6849 18.4338C21.8949 18.4074 22.0941 18.3618 22.2813 18.2922C22.5825 18.1794 22.8262 18.0054 23.011 17.7702C23.1958 17.535 23.2882 17.2409 23.2882 16.8881C23.2882 16.5845 23.2378 16.3289 23.137 16.1237C23.0362 15.9185 22.8598 15.7421 22.6077 15.5945C22.3809 15.4625 22.0737 15.3473 21.6861 15.2489C21.6861 14.8721 21.6861 14.4952 21.6861 14.1184C21.7449 14.1424 21.7989 14.17 21.8445 14.2048C22.0893 14.3908 22.1133 14.6921 22.1193 14.7737C22.1745 15.0329 22.4157 15.2105 22.6738 15.1877C22.9402 15.1637 23.1502 14.9321 23.1466 14.6597C23.0674 14.1796 22.867 13.8136 22.5429 13.5616C22.3137 13.384 22.0281 13.27 21.6873 13.2172C21.6873 12.9388 21.6873 12.6592 21.6873 12.3808C21.6885 12.1204 21.4701 11.9128 21.2229 11.9236C20.9889 11.9332 20.7957 12.136 20.7969 12.3808C20.7969 12.6592 20.7969 12.9388 20.7969 13.2172C20.5989 13.2472 20.4165 13.2952 20.2557 13.366C19.9821 13.4884 19.7733 13.6564 19.6304 13.8724C19.4876 14.0884 19.4168 14.3356 19.4168 14.6141C19.4168 14.8697 19.4672 15.0917 19.568 15.2825C19.6688 15.4733 19.8405 15.6413 20.0817 15.7877C20.2677 15.9005 20.5077 16.0001 20.7981 16.0853C20.7981 16.5533 20.7981 17.0201 20.7981 17.4882C20.7273 17.4534 20.6613 17.4125 20.6061 17.3609C20.3049 17.0789 20.2665 16.7033 20.2629 16.6229C20.2101 16.3373 19.9377 16.1489 19.6652 16.1957C19.4096 16.2389 19.2188 16.4777 19.2368 16.7489C19.316 17.3009 19.5332 17.7246 19.8909 18.0186C20.1393 18.2238 20.4429 18.3558 20.7981 18.4182C20.7981 18.633 20.7981 18.8466 20.7981 19.0614C20.8029 19.3014 21.0033 19.497 21.2433 19.497C21.4809 19.497 21.6801 19.3026 21.6849 19.0614ZM21.8421 16.3853C22.0077 16.4537 22.1193 16.5293 22.1757 16.6133C22.2321 16.6973 22.2609 16.8125 22.2609 16.9613C22.2609 17.0909 22.2213 17.2037 22.1421 17.2985C22.0629 17.3933 21.9525 17.4678 21.8097 17.5194C21.7701 17.5338 21.7281 17.5458 21.6849 17.5566C21.6849 17.1473 21.6849 16.7369 21.6849 16.3277C21.7437 16.3481 21.7965 16.3673 21.8421 16.3853ZM20.5173 14.8121C20.4501 14.7365 20.4165 14.6453 20.4165 14.5385C20.4165 14.3788 20.4897 14.254 20.6373 14.1664C20.6853 14.1376 20.7393 14.1148 20.7945 14.0956C20.7945 14.3932 20.7945 14.6921 20.7945 14.9897C20.6685 14.9357 20.5749 14.8769 20.5173 14.8121Z" fill="#069E2D"/>
<path d="M9.13854 11.452C11.3262 11.452 13.5139 11.452 15.7016 11.452C16.5476 11.4856 17.2496 10.8363 17.2964 10.0623C17.3468 9.22587 16.6172 8.45785 15.7016 8.49025H9.13854C8.37771 8.58865 7.81009 9.24867 7.82569 10.0023C7.84129 10.7331 8.40051 11.3571 9.13854 11.452Z" fill="#374151"/>
<path d="M26.4479 26.3913C26.2979 26.3913 26.1467 26.3409 26.0219 26.2377L24.9179 25.328C24.6323 25.0928 24.5915 24.6704 24.8267 24.386C25.0619 24.1004 25.4843 24.0596 25.7687 24.2948L26.3795 24.7988L28.584 22.3675C28.8324 22.0939 29.256 22.0723 29.5296 22.3207C29.8032 22.5691 29.8248 22.9927 29.5764 23.2664L26.9435 26.1705C26.8127 26.3169 26.6303 26.3913 26.4479 26.3913Z" fill="#069E2D"/>
</svg>
