<svg width="68" height="80" viewBox="0 0 68 80" fill="none" xmlns="http://www.w3.org/2000/svg">
<path d="M66.9739 69.2839V45.5368C66.9739 44.651 66.7739 40.1645 63.0304 37.2211C60.7728 35.4494 58.3153 35.1065 57.0007 35.0493C56.7436 35.0207 56.4864 34.9922 56.2292 34.9636V19.4752L56.2006 19.2751C55.3719 13.7885 52.5714 8.81616 48.3135 5.24411C44.0842 1.67206 38.7404 -0.185409 33.3109 0.0146255C22.5376 0.357542 13.536 8.47324 11.9357 19.3037V19.8752C11.9357 20.5896 12.5073 21.1612 13.2217 21.1612C13.9361 21.1612 14.5076 20.5896 14.5076 19.8752V19.5895C15.965 10.0449 23.9093 2.92942 33.3966 2.61508C43.3698 2.30074 52.057 9.58772 53.6001 19.5895V34.6778C51.4569 34.4492 49.2851 34.2492 47.1133 34.1063V21.9899V21.9042C46.5989 15.1315 40.9408 9.73061 34.1682 9.58772C27.167 9.47342 21.2802 14.8744 20.7659 21.9042V33.9634C18.6798 34.1063 16.5651 34.2777 14.479 34.4778V28.8768C14.479 28.1624 13.9075 27.5909 13.1931 27.5909C12.4787 27.5909 11.9072 28.1624 11.9072 28.8768V34.735C10.164 34.9064 5.70609 35.7351 2.96275 39.593C1.90542 41.0789 1.21959 42.8507 0.962402 44.7367V44.8224V70.5698C0.990979 72.4273 1.47678 74.1704 2.44838 75.6278C4.24869 78.3997 7.56355 80 11.2785 80C11.7071 80 12.1072 79.9714 12.5358 79.9428H42.0267C42.7411 79.9428 43.3126 79.3713 43.3126 78.6569C43.3126 77.9425 42.7411 77.371 42.0267 77.371H12.5073H12.3644C9.10668 77.7139 6.13473 76.4851 4.64876 74.2276C3.79147 72.913 3.62001 71.5128 3.59143 70.5698V44.9939C3.79147 43.5365 4.30584 42.222 5.10598 41.0789C7.53498 37.6498 11.7929 37.3068 12.6216 37.2783H12.7073C20.08 36.4781 27.5385 36.1066 34.9112 36.1638C41.5409 36.2209 48.2278 36.6496 54.8004 37.3926C55.4576 37.4783 56.1149 37.5355 56.7436 37.6212H56.8579C57.8295 37.6498 59.7155 37.9069 61.4301 39.25C64.2306 41.4504 64.3735 44.8796 64.3735 45.5368V69.3696V69.541C64.402 69.6839 64.8307 73.1417 62.316 75.5135C60.5156 77.1995 58.3153 77.371 57.4294 77.3424H56.2006C55.4862 77.3424 54.9147 77.9139 54.9147 78.6283C54.9147 79.3428 55.4862 79.9143 56.2006 79.9143H57.4008C58.5724 79.9429 61.573 79.7142 64.0591 77.371C67.4026 74.3419 67.0882 70.1126 66.9739 69.2839ZM23.4235 33.8205V22.047C23.8521 16.4175 28.5672 12.0739 34.1968 12.1882C39.5977 12.2739 44.1699 16.6175 44.5986 22.047V33.9062C41.3694 33.7062 38.1689 33.5919 34.9398 33.5633C31.1105 33.5348 27.2527 33.6205 23.4235 33.8205Z" fill="#058E3F"/>
<path d="M26.0239 67.0834C26.5383 67.6549 29.3102 70.484 33.6252 70.484C33.7967 70.484 33.9967 70.484 34.1682 70.4554C38.2832 70.2268 40.7979 67.5692 41.4552 66.7691C41.7409 66.4262 41.8266 65.9404 41.6838 65.5117L38.9404 57.4817C39.9406 56.5387 41.5409 54.5669 41.3123 51.9379C41.0265 48.1087 37.3116 45.7368 34.0824 45.7083H34.0539C32.0821 45.7083 30.1103 46.537 28.6815 48.0229C27.3384 49.366 26.624 51.052 26.6526 52.7952C26.6811 55.167 28.11 56.9102 29.1101 57.7961L25.7667 65.6832C25.5667 66.169 25.681 66.7119 26.0239 67.0834ZM31.8821 57.9104C32.1107 57.3389 31.9392 56.6816 31.4248 56.3387C31.1962 56.1958 29.2816 54.7956 29.253 52.7381C29.253 51.7093 29.6817 50.6805 30.539 49.8233C31.482 48.8517 32.8251 48.2801 34.0824 48.2801C34.0824 48.2801 34.0824 48.2801 34.111 48.2801C36.1685 48.2801 38.5975 49.8518 38.769 52.1094C38.9404 54.3669 36.74 55.9672 36.7115 55.9672C36.2542 56.3101 36.0542 56.9102 36.2257 57.4532L38.9976 65.5689C38.1689 66.3976 36.4829 67.6835 34.0253 67.8264C31.3963 67.9693 29.4531 66.6833 28.51 65.8546L31.8821 57.9104Z" fill="#058E3F"/>
</svg>
