<svg width="28" height="36" viewBox="0 0 28 36" fill="none" xmlns="http://www.w3.org/2000/svg">
<path d="M27.195 2.07967C26.4606 0.745272 24.8971 -0.050326 23.1199 0.0024739H7.80309L0.359501 7.48926V31.9308C0.330701 32.3496 0.316301 33.9336 1.6123 35.0748C2.5339 35.886 3.59229 36 4.11429 36C4.15389 36 4.18989 35.9988 4.22349 35.9988H23.6527C24.0103 35.9964 25.8498 35.9064 26.9562 34.3224C27.4278 33.6468 27.6726 32.8068 27.6462 31.9536V3.95287C27.6558 3.27127 27.5034 2.64127 27.195 2.07967ZM7.23309 3.34447V6.05166C7.22829 6.13686 7.19349 6.43566 6.95229 6.66606C6.69549 6.90966 6.37269 6.91686 6.31029 6.91686H3.68229L7.23309 3.34447ZM25.3578 33.204C24.7807 34.0308 23.6887 34.0464 23.6479 34.0464H4.20789L4.17069 34.0476C3.99789 34.0548 3.39429 34.0428 2.9023 33.6096C2.2291 33.0168 2.3035 32.0952 2.3071 32.0568L2.3107 32.0136V8.86806H6.28629C6.29589 8.86806 6.30669 8.86806 6.31629 8.86806C6.69309 8.86806 7.55709 8.78286 8.29629 8.07966C9.06068 7.35246 9.17108 6.45726 9.18308 6.10686V1.95367H23.1331H23.1643C24.2011 1.91767 25.1082 2.33887 25.4826 3.02047C25.6266 3.28327 25.6987 3.58927 25.6938 3.94087V31.968L25.695 32.0028C25.7058 32.2572 25.6746 32.7516 25.3578 33.204Z" fill="#374151"/>
<path d="M5.79066 14.2296H15.183C15.7218 14.2296 16.1586 13.7928 16.1586 13.254C16.1586 12.7152 15.7218 12.2784 15.183 12.2784H5.79066C5.25186 12.2784 4.81506 12.7152 4.81506 13.254C4.81506 13.7928 5.25186 14.2296 5.79066 14.2296Z" fill="#374151"/>
<path d="M5.79066 18.2724H15.183C15.7218 18.2724 16.1586 17.8356 16.1586 17.2968C16.1586 16.758 15.7218 16.3212 15.183 16.3212H5.79066C5.25187 16.3212 4.81507 16.758 4.81507 17.2968C4.81387 17.8356 5.25187 18.2724 5.79066 18.2724Z" fill="#374151"/>
<path d="M11.8578 20.364H5.79066C5.25186 20.364 4.81506 20.8008 4.81506 21.3396C4.81506 21.8784 5.25186 22.3152 5.79066 22.3152H11.8578C12.3966 22.3152 12.8334 21.8784 12.8334 21.3396C12.8334 20.8008 12.3966 20.364 11.8578 20.364Z" fill="#374151"/>
<path d="M11.691 24.4068H5.79066C5.25186 24.4068 4.81506 24.8436 4.81506 25.3824C4.81506 25.9212 5.25186 26.358 5.79066 26.358H11.691C12.2298 26.358 12.6666 25.9212 12.6666 25.3824C12.6666 24.8436 12.2298 24.4068 11.691 24.4068Z" fill="#374151"/>
<path d="M11.1115 28.4496H5.79066C5.25186 28.4496 4.81506 28.8864 4.81506 29.4252C4.81506 29.964 5.25186 30.4008 5.79066 30.4008H11.1115C11.6502 30.4008 12.087 29.964 12.087 29.4252C12.087 28.8864 11.6502 28.4496 11.1115 28.4496Z" fill="#374151"/>
<path d="M19.9615 25.4796C19.6099 25.2744 19.1323 25.0956 18.5311 24.9432C18.5311 24.3588 18.5311 23.7744 18.5311 23.19C18.6211 23.2272 18.7051 23.2704 18.7759 23.3244C19.1551 23.6124 19.1923 24.0804 19.2019 24.2076C19.2871 24.6096 19.6603 24.8856 20.0623 24.8496C20.4763 24.8124 20.8003 24.4536 20.7955 24.03C20.6731 23.2848 20.3611 22.7172 19.8583 22.3272C19.5031 22.0512 19.0591 21.8748 18.5311 21.7932C18.5311 21.36 18.5311 20.928 18.5311 20.4948C18.5335 20.0904 18.1939 19.7688 17.8099 19.7856C17.4475 19.8012 17.1463 20.1144 17.1487 20.4948C17.1487 20.928 17.1487 21.36 17.1487 21.7932C16.8415 21.8388 16.5583 21.9132 16.3087 22.0248C15.8839 22.2144 15.5611 22.476 15.3391 22.8108C15.1171 23.1456 15.0067 23.5284 15.0067 23.9604C15.0067 24.3564 15.0847 24.702 15.2419 24.9972C15.3991 25.2924 15.6643 25.5528 16.0387 25.7796C16.3279 25.9548 16.6987 26.1084 17.1499 26.2404C17.1499 26.9664 17.1499 27.6912 17.1499 28.4172C17.0407 28.3632 16.9375 28.3008 16.8523 28.2204C16.3843 27.7824 16.3255 27.2004 16.3207 27.0756C16.2391 26.634 15.8167 26.34 15.3931 26.412C14.9959 26.4792 14.7007 26.85 14.7283 27.27C14.8507 28.1268 15.1891 28.7832 15.7435 29.2404C16.1287 29.5584 16.6003 29.7636 17.1511 29.8596C17.1511 30.192 17.1511 30.5244 17.1511 30.8568C17.1595 31.23 17.4691 31.5324 17.8423 31.5324C18.2155 31.5324 18.5251 31.23 18.5335 30.8568C18.5335 30.5328 18.5335 30.2088 18.5335 29.8836C18.8587 29.8428 19.1683 29.772 19.4587 29.664C19.9267 29.49 20.3035 29.2188 20.5891 28.854C20.8759 28.4892 21.0187 28.032 21.0187 27.486C21.0187 27.0144 20.9407 26.6196 20.7835 26.3004C20.6263 25.9812 20.3527 25.7076 19.9615 25.4796ZM17.1499 24.5412C16.9543 24.456 16.8091 24.3636 16.7191 24.264C16.6147 24.1476 16.5619 24.006 16.5619 23.8404C16.5619 23.592 16.6759 23.4 16.9051 23.2632C16.9795 23.2188 17.0623 23.184 17.1487 23.154C17.1499 23.616 17.1499 24.078 17.1499 24.5412ZM19.2415 28.122C19.1191 28.2696 18.9475 28.3836 18.7255 28.4652C18.6631 28.488 18.5983 28.506 18.5311 28.5228C18.5311 27.8868 18.5311 27.252 18.5311 26.616C18.6223 26.646 18.7039 26.676 18.7735 26.7048C19.0303 26.8104 19.2031 26.9292 19.2919 27.0588C19.3795 27.1884 19.4239 27.3684 19.4239 27.5988C19.4251 27.8004 19.3639 27.9744 19.2415 28.122Z" fill="#069E2D"/>
<path d="M22.0159 3.40927L17.8435 3.40567L17.7643 3.41047C17.4931 3.44167 16.8091 3.58087 16.3135 4.20487C15.9991 4.60207 15.8983 5.02327 15.8683 5.30647L15.8647 7.99326V8.01006C15.8695 8.19006 15.9319 9.11166 16.7515 9.61566C17.0995 9.82926 17.4499 9.88206 17.7115 9.88206C17.7415 9.88206 17.7703 9.88086 17.7979 9.87966H21.7735C22.0171 9.88806 22.4695 9.85206 22.8967 9.53646C23.5435 9.05886 23.6119 8.34126 23.6179 8.13366V5.19727C23.6179 4.98847 23.5723 4.45087 23.1487 3.98647C22.7371 3.53287 22.2199 3.43207 22.0159 3.40927ZM17.4079 5.07007C17.5627 4.87447 17.7883 4.81687 17.8903 4.80007H21.8923C21.9451 4.80967 22.0423 4.83967 22.1203 4.92487C22.2211 5.03527 22.2259 5.16967 22.2259 5.19607V6.28086C22.0519 6.36246 21.8827 6.40326 21.7195 6.40326C21.7159 6.40326 21.7111 6.40326 21.7075 6.40326C21.4867 6.40086 21.3655 6.33006 21.1099 6.17046C20.8243 5.99166 20.4319 5.74687 19.8235 5.69527C19.2751 5.64727 18.9067 5.78647 18.6379 5.88727C18.4279 5.96647 18.3115 6.00846 18.1075 5.98446C17.8243 5.95087 17.5411 5.80087 17.2603 5.54287V5.41807C17.2747 5.32207 17.3119 5.19127 17.4079 5.07007ZM22.0711 8.41446C21.9763 8.48406 21.8647 8.48766 21.8215 8.48526L17.7835 8.48406L17.7451 8.48526C17.6755 8.48886 17.5747 8.48166 17.4835 8.42646C17.2879 8.30646 17.2627 8.01486 17.2603 7.97886V7.18686C17.4823 7.27806 17.7091 7.34166 17.9431 7.36926C18.4831 7.43286 18.8551 7.29486 19.1263 7.19286C19.3411 7.11246 19.4695 7.06446 19.7023 7.08486C19.9771 7.10886 20.1331 7.20606 20.3707 7.35486C20.6815 7.54926 21.0691 7.79046 21.6883 7.79766C21.6991 7.79766 21.7087 7.79766 21.7195 7.79766C21.8887 7.79766 22.0579 7.77726 22.2247 7.74246V8.09886C22.2235 8.13126 22.2055 8.31486 22.0711 8.41446Z" fill="#374151"/>
<path d="M10.7839 5.66646H13.9891C14.3743 5.66646 14.6863 5.35446 14.6863 4.96926C14.6863 4.58406 14.3743 4.27206 13.9891 4.27206H10.7839C10.3987 4.27206 10.0867 4.58406 10.0867 4.96926C10.0867 5.35446 10.3987 5.66646 10.7839 5.66646Z" fill="#374151"/>
<path d="M10.8523 6.16687C10.4671 6.16687 10.1551 6.47887 10.1551 6.86407C10.1551 7.24927 10.4671 7.56127 10.8523 7.56127H12.3859C12.7711 7.56127 13.0831 7.24927 13.0831 6.86407C13.0831 6.47887 12.7711 6.16687 12.3859 6.16687H10.8523Z" fill="#374151"/>
</svg>
