<svg width="80" height="80" viewBox="0 0 80 80" fill="none" xmlns="http://www.w3.org/2000/svg">
<path d="M79.6054 59.2415C78.894 58.1016 77.9169 57.1702 76.7741 56.5531C73.8915 54.9932 70.9688 55.896 70.1432 56.2103C70.1232 56.2188 70.1032 56.2274 70.0832 56.236L57.7669 61.6613C57.4355 61.0156 57.0098 60.3614 56.4527 59.7329C54.6986 57.7502 52.5559 57.0159 51.4359 56.7531C51.3588 56.736 51.2817 56.7245 51.2017 56.7217C48.2133 56.596 45.1364 56.596 42.0595 56.7217C41.1395 56.7588 40.531 56.7959 40.071 56.8245C39.3882 56.8645 39.0768 56.8845 38.534 56.8588C35.2485 56.7131 32.9744 55.4446 30.9688 54.3276C30.186 53.8904 29.4461 53.479 28.6947 53.1562C24.8578 51.5163 19.9896 52.0563 14.21 54.7361V51.5306C14.21 50.8364 13.6472 50.2736 12.953 50.2736H1.46238C0.768139 50.2736 0.205322 50.8364 0.205322 51.5306V78.3287C0.205322 79.0229 0.768139 79.5858 1.46238 79.5858H12.9501C13.6444 79.5858 14.2072 79.0229 14.2072 78.3287V76.5974C15.3385 75.6946 17.2727 74.5233 19.7068 74.5433C20.3582 74.549 21.0153 74.6404 21.6666 74.8204L37.3055 78.9915C39.3825 79.6629 41.5281 80 43.6879 80C43.8365 80 43.9879 79.9972 44.1365 79.9943C47.3677 79.9257 50.6103 79.0715 53.5101 77.5316C53.5415 77.5145 53.5729 77.4973 53.6015 77.4773L79.2168 60.9671C79.7939 60.59 79.9682 59.8243 79.6054 59.2415ZM52.2845 75.3318C49.7418 76.6745 46.9048 77.4173 44.0822 77.4773C42.0366 77.5202 40.011 77.2202 38.0483 76.586C38.0283 76.5803 38.0055 76.5717 37.9855 76.566L22.3237 72.3891C21.4724 72.1577 20.601 72.0349 19.7325 72.0263C19.7011 72.0263 19.6696 72.0263 19.6411 72.0263C17.4612 72.0263 15.6128 72.7405 14.21 73.5576V69.9207C14.21 69.2265 13.6472 68.6637 12.953 68.6637C12.2587 68.6637 11.6959 69.2265 11.6959 69.9207V77.0688H2.71943V52.7848H11.6959V63.0755C11.6959 63.7697 12.2587 64.3326 12.953 64.3326C13.6472 64.3326 14.21 63.7697 14.21 63.0755V57.5245C19.7925 54.7218 24.335 54.0247 27.7091 55.4675C28.3376 55.736 29.0204 56.1189 29.7461 56.5217C31.8831 57.7159 34.5457 59.1986 38.4254 59.3701C39.0997 59.3986 39.4997 59.3758 40.2225 59.3329C40.671 59.3072 41.2652 59.2701 42.1652 59.2329C45.1307 59.1101 48.0962 59.1101 50.976 59.2272C51.8302 59.4415 53.333 59.9986 54.57 61.3985C54.9386 61.8156 55.23 62.247 55.4614 62.6784L55.35 62.727L56.167 64.5782C56.1842 64.6554 56.2013 64.7325 56.2156 64.804H39.8139C39.1197 64.804 38.5569 65.3668 38.5569 66.061C38.5569 66.7552 39.1197 67.3181 39.8139 67.3181H57.5984C57.9326 67.3181 58.2555 67.1838 58.4897 66.9467C58.7269 66.7095 58.8583 66.3867 58.8554 66.0524C58.8526 65.6125 58.8069 64.8925 58.6154 64.0354L71.0631 58.553C71.6745 58.3244 73.6658 57.7302 75.5771 58.7672C76.0256 59.0101 76.3942 59.3043 76.697 59.6015L52.2845 75.3318Z" fill="#058E3F"/>
<path d="M46.4106 19.5415C46.4106 15.636 43.5251 12.4591 39.9767 12.4591C36.4284 12.4591 33.5429 15.636 33.5429 19.5415C33.5429 23.4469 36.4284 26.6238 39.9767 26.6238C43.5251 26.621 46.4106 23.444 46.4106 19.5415ZM36.0542 19.5415C36.0542 17.0216 37.814 14.9732 39.9767 14.9732C42.1394 14.9732 43.8993 17.0216 43.8993 19.5415C43.8993 22.0613 42.1394 24.1097 39.9767 24.1097C37.814 24.1097 36.0542 22.0584 36.0542 19.5415Z" fill="#058E3F"/>
<path d="M56.0928 41.1742C59.6411 41.1742 62.5266 37.9972 62.5266 34.0918C62.5266 30.1864 59.6411 27.0095 56.0928 27.0095C52.5444 27.0095 49.6589 30.1864 49.6589 34.0918C49.6589 37.9972 52.5444 41.1742 56.0928 41.1742ZM56.0928 29.5236C58.2555 29.5236 60.0153 31.572 60.0153 34.0918C60.0153 36.6116 58.2555 38.6601 56.0928 38.6601C53.9301 38.6601 52.173 36.6116 52.173 34.0918C52.173 31.572 53.9301 29.5236 56.0928 29.5236Z" fill="#058E3F"/>
<path d="M38.5683 42.2141C38.774 42.3398 38.9997 42.3998 39.2254 42.3998C39.6482 42.3998 40.0596 42.1856 40.2968 41.7999L57.9412 13.0762C58.304 12.4848 58.1183 11.7106 57.527 11.3478C56.9356 10.9849 56.1613 11.1706 55.7985 11.762L38.1541 40.4857C37.7941 41.0771 37.9769 41.8513 38.5683 42.2141Z" fill="#058E3F"/>
<path d="M48.0505 53.5676C62.818 53.5676 74.8314 41.5513 74.8314 26.7838C74.8314 25.3068 74.7114 23.8354 74.4714 22.4013C74.3572 21.7156 73.7086 21.2556 73.0258 21.367C72.3402 21.4813 71.8773 22.1298 71.9916 22.8127C72.2059 24.1068 72.3173 25.4439 72.3173 26.7809C72.3173 40.1657 61.4295 51.0535 48.0476 51.0535C34.6657 51.0535 23.7751 40.1657 23.7751 26.7809C23.7751 13.399 34.6628 2.51125 48.0476 2.51125C55.7013 2.51125 62.9951 6.18813 67.5576 12.3477C67.9719 12.9048 68.7576 13.0219 69.3147 12.6105C69.8718 12.1963 69.9889 11.4106 69.5775 10.8535C64.5464 4.05685 56.4984 0 48.0505 0C33.2801 0 21.2667 12.0134 21.2667 26.7809C21.2667 41.5513 33.2801 53.5676 48.0505 53.5676Z" fill="#058E3F"/>
</svg>
