<svg width="300" height="297" viewBox="0 0 300 297" fill="none" xmlns="http://www.w3.org/2000/svg">
<path opacity="0.7" d="M31.011 92.2469C31.011 92.2469 12.3495 140.405 38.5692 188.899C64.7889 237.392 118.767 263.009 161.976 284.948C205.185 306.887 250.066 296.185 271.336 260.334C292.606 224.482 263.443 198.865 263.376 147.696C263.31 96.5276 271.068 83.0164 243.31 39.7406C215.552 -3.53533 147.595 -13.0333 96.2258 19.0056C44.8566 51.0445 31.011 92.2469 31.011 92.2469Z" fill="white"/>
<path d="M73.8855 266.487C89.6709 283.142 128.398 277.056 145.187 266.487C199.7 232.241 295.215 175.12 299.562 92.4475C301.435 57.3318 270.4 38.871 257.49 33.4532C226.388 20.4771 192.276 16.5308 158.564 15.0593C123.382 13.5209 85.6577 14.7248 54.0201 31.8479C42.0473 38.3359 30.7434 46.6968 22.9846 58.0676C15.0919 69.639 10.6105 83.4178 9.40649 97.2634C7.46677 119.671 13.4866 142.145 22.6501 162.679C31.8136 183.213 43.9202 202.276 55.0903 221.807C62.3141 234.582 60.6419 252.441 73.8855 266.487Z" fill="#9FFFB3"/>
<path opacity="0.7" d="M73.8855 266.487C89.6709 283.142 128.398 277.056 145.187 266.487C199.7 232.241 295.215 175.12 299.562 92.4475C301.435 57.3318 270.4 38.871 257.49 33.4532C226.388 20.4771 192.276 16.5308 158.564 15.0593C123.382 13.5209 85.6577 14.7248 54.0201 31.8479C42.0473 38.3359 30.7434 46.6968 22.9846 58.0676C15.0919 69.639 10.6105 83.4178 9.40649 97.2634C7.46677 119.671 13.4866 142.145 22.6501 162.679C31.8136 183.213 43.9202 202.276 55.0903 221.807C62.3141 234.582 60.6419 252.441 73.8855 266.487Z" fill="white"/>
<path d="M73.6849 98.3335C73.4173 98.3335 73.1498 98.2666 72.8823 98.1997L40.7765 88.5011C40.1076 88.3005 39.5056 87.8323 39.1712 87.2303C38.8368 86.6283 38.7699 85.8925 38.9706 85.1568L44.6559 66.2946C45.0573 64.89 46.5957 64.0874 48.0003 64.4887L80.1061 74.1873C81.5107 74.5886 82.3133 76.127 81.912 77.5317L76.2266 96.3938C76.0259 97.0627 75.5577 97.6646 74.9558 97.9991C74.5544 98.2666 74.0862 98.3335 73.6849 98.3335ZM47.2645 65.0907C46.395 65.0907 45.5924 65.6258 45.3248 66.4953L39.6394 85.3574C39.5056 85.8925 39.5056 86.4276 39.7732 86.8958C40.0407 87.364 40.4421 87.6985 40.9772 87.8991L73.0829 97.5978C73.618 97.7315 74.1531 97.7315 74.6213 97.464C75.0895 97.1964 75.424 96.7951 75.6246 96.26L81.31 77.3979C81.6445 76.3277 81.0425 75.1906 79.9723 74.8562L47.8665 65.1576C47.6659 65.0907 47.4652 65.0907 47.2645 65.0907Z" fill="#058E3F"/>
<path d="M43.9797 69.0278L43.7857 69.6679L80.2719 80.7244L80.4659 80.0843L43.9797 69.0278Z" fill="#058E3F"/>
<path d="M42.9048 72.6631L42.7108 73.3033L79.197 84.3597L79.391 83.7196L42.9048 72.6631Z" fill="#058E3F"/>
<path d="M67.3306 93.317C67.0631 93.317 66.7955 93.2501 66.528 93.1832C65.8591 92.9825 65.2571 92.5143 64.9227 91.8455C64.5883 91.1766 64.5214 90.5077 64.722 89.772C64.9227 89.1031 65.3909 88.5011 66.0598 88.1667C66.7287 87.8322 67.3975 87.7654 68.1333 87.966C68.8021 88.1667 69.3372 88.6349 69.7386 89.2369L69.9392 89.5713L69.6048 89.7051C69.1366 89.9726 68.7353 90.374 68.6015 90.9091C68.4677 91.4441 68.5346 92.0461 68.8021 92.5143L69.0028 92.8488L68.6684 92.9825C68.1333 93.2501 67.732 93.317 67.3306 93.317ZM67.3306 88.568C66.9962 88.568 66.6618 88.6349 66.3942 88.8356C65.926 89.1031 65.5916 89.5044 65.3909 90.0395C65.2571 90.5746 65.2571 91.1097 65.5247 91.5779C65.7922 92.0461 66.1936 92.3806 66.7287 92.5812C67.13 92.715 67.5313 92.715 67.9326 92.5812C67.732 92.0461 67.6651 91.3773 67.8657 90.7753C68.0664 90.1733 68.4008 89.7051 68.9359 89.3707C68.6684 89.0362 68.3339 88.8356 67.9326 88.7018C67.6651 88.6349 67.4644 88.568 67.3306 88.568Z" fill="#058E3F"/>
<path d="M70.4074 94.2534C70.1399 94.2534 69.8723 94.1865 69.6048 94.1196C68.2002 93.6514 67.3975 92.1799 67.7988 90.7084C67.9995 90.0395 68.4677 89.4375 69.1366 89.1031C69.8055 88.7687 70.5412 88.7018 71.2101 88.9024C72.6147 89.3707 73.4174 90.8422 73.016 92.3137C72.6816 93.5176 71.6114 94.2534 70.4074 94.2534ZM70.4074 89.5044C70.073 89.5044 69.7386 89.5713 69.471 89.772C69.0028 90.0395 68.6684 90.4408 68.4677 90.9759C68.1333 92.0461 68.7353 93.1832 69.8055 93.5176C70.8757 93.8521 72.0127 93.2501 72.3472 92.1799C72.6816 91.1097 72.0796 89.9726 71.0094 89.6382C70.8088 89.5713 70.6081 89.5044 70.4074 89.5044Z" fill="#058E3F"/>
<path d="M292.74 140.405C292.472 140.405 292.205 140.339 291.937 140.272L265.45 132.245C264.781 132.045 264.179 131.576 263.845 130.974C263.51 130.372 263.443 129.637 263.644 128.901L268.259 113.584C268.46 112.915 268.928 112.313 269.53 111.978C270.132 111.644 270.868 111.577 271.603 111.778L298.091 119.804C299.495 120.206 300.298 121.744 299.897 123.149L295.281 138.466C295.081 139.135 294.613 139.737 294.011 140.071C293.609 140.272 293.141 140.405 292.74 140.405ZM270.868 112.313C270.533 112.313 270.199 112.38 269.931 112.58C269.463 112.848 269.129 113.249 268.928 113.784L264.313 129.102C264.179 129.637 264.179 130.172 264.447 130.64C264.714 131.108 265.115 131.443 265.651 131.643L292.138 139.67C292.673 139.803 293.208 139.803 293.676 139.536C294.144 139.268 294.479 138.867 294.679 138.332L299.295 122.948C299.629 121.878 299.027 120.741 297.957 120.406L271.47 112.38C271.269 112.313 271.068 112.313 270.868 112.313Z" fill="#058E3F"/>
<path d="M267.968 115.711L267.774 116.351L298.819 125.759L299.013 125.119L267.968 115.711Z" fill="#058E3F"/>
<path d="M267.034 118.811L266.84 119.451L297.821 128.839L298.015 128.199L267.034 118.811Z" fill="#058E3F"/>
<path d="M287.79 136.459C286.921 136.459 286.118 135.991 285.65 135.121C285.115 133.984 285.583 132.58 286.72 131.978C287.255 131.71 287.857 131.643 288.392 131.844C288.994 132.045 289.462 132.379 289.73 132.914L289.931 133.249L289.596 133.382C289.195 133.583 288.86 133.984 288.727 134.386C288.593 134.854 288.66 135.322 288.86 135.723L289.061 136.058L288.727 136.192C288.526 136.325 288.191 136.459 287.79 136.459ZM287.79 132.446C287.523 132.446 287.255 132.513 287.054 132.647C286.252 133.048 285.85 134.051 286.252 134.854C286.586 135.59 287.456 135.924 288.191 135.723C287.991 135.255 287.991 134.72 288.125 134.252C288.258 133.784 288.593 133.315 288.994 133.048C288.793 132.78 288.526 132.647 288.191 132.513C288.125 132.446 287.991 132.446 287.79 132.446Z" fill="#058E3F"/>
<path d="M290.466 137.262C290.198 137.262 289.997 137.195 289.73 137.128C289.128 136.927 288.66 136.526 288.325 135.991C288.058 135.456 287.991 134.787 288.191 134.185C288.593 132.981 289.864 132.245 291.068 132.647C292.272 133.048 293.007 134.319 292.606 135.59C292.405 136.192 292.004 136.66 291.469 136.994C291.201 137.195 290.867 137.262 290.466 137.262ZM290.466 133.249C289.73 133.249 289.061 133.717 288.86 134.452C288.727 134.854 288.793 135.322 288.994 135.723C289.195 136.125 289.529 136.392 289.997 136.526C290.399 136.66 290.867 136.593 291.268 136.392C291.67 136.192 291.937 135.857 292.071 135.389C292.338 134.519 291.803 133.583 290.934 133.315C290.8 133.249 290.599 133.249 290.466 133.249Z" fill="#058E3F"/>
<path d="M225.92 85.1568L225.786 84.8223L216.422 64.3549L255.751 46.3623L255.885 46.6967L265.249 67.1642L225.92 85.1568ZM217.358 64.7562L226.321 84.2872L264.447 66.8297L255.484 47.2987L217.358 64.7562Z" fill="#058E3F"/>
<path d="M228.93 81.8793L228.796 81.6118C228.595 81.1436 228.194 80.7422 227.726 80.6085C227.257 80.4747 226.722 80.4747 226.254 80.6753L225.92 80.8091L219.766 67.4317L220.101 67.2979C221.037 66.8297 221.505 65.6927 221.037 64.7562L220.903 64.4218L252.808 49.8404L252.942 50.1749C253.41 51.1113 254.547 51.5795 255.484 51.1113L255.818 50.9775L261.972 64.3549L261.637 64.4887C260.701 64.9569 260.233 66.094 260.701 67.0304L260.835 67.3648L228.93 81.8793ZM226.99 79.7389C227.324 79.7389 227.592 79.8058 227.926 79.8727C228.461 80.0734 228.93 80.4747 229.264 80.9429L259.965 66.8966C259.631 65.7595 260.099 64.5556 261.102 63.8867L255.484 51.6464C254.347 51.9808 253.143 51.5126 252.474 50.5093L221.773 64.5556C222.107 65.6927 221.639 66.8966 220.636 67.5655L226.254 79.8058C226.522 79.8058 226.789 79.7389 226.99 79.7389Z" fill="#058E3F"/>
<path d="M240.902 71.9131C240.635 71.9131 240.367 71.9132 240.1 71.8463C238.494 71.6456 237.023 70.7761 236.02 69.5052C235.016 68.2344 234.615 66.5622 234.816 64.9569C235.016 63.3516 235.886 61.8801 237.157 60.8768C238.428 59.8735 240.1 59.4722 241.705 59.6728C243.31 59.8735 244.782 60.743 245.785 62.0139C247.859 64.6894 247.324 68.5688 244.648 70.6423C243.511 71.5118 242.24 71.9131 240.902 71.9131ZM240.835 60.2748C239.632 60.2748 238.494 60.6761 237.491 61.4119C236.354 62.2814 235.551 63.6192 235.418 65.0238C235.217 66.4953 235.618 67.8999 236.488 69.1039C237.357 70.241 238.695 71.0436 240.1 71.1774C241.571 71.3781 242.976 70.9767 244.18 70.1072C246.588 68.2344 247.056 64.8231 245.183 62.4152C244.314 61.2781 242.976 60.4755 241.571 60.3417C241.304 60.3417 241.103 60.2748 240.835 60.2748Z" fill="#058E3F"/>
<path d="M242.441 68.5688L242.842 69.5052L242.441 69.7059L242.039 68.7695C241.304 69.1039 240.501 69.1708 239.698 68.9032V68.3013C240.367 68.5019 241.103 68.5019 241.772 68.2344L240.769 66.094C239.765 66.2946 238.695 66.4284 238.227 65.3582C237.892 64.5556 238.093 63.6192 239.364 62.9503L238.963 62.0139L239.364 61.8132L239.832 62.7496C240.434 62.4821 241.103 62.4152 241.772 62.4821V63.0841C241.17 63.0172 240.635 63.0841 240.1 63.2847L241.103 65.492C242.106 65.2913 243.243 65.0907 243.778 66.2277C243.979 66.9635 243.712 67.8999 242.441 68.5688ZM240.501 65.492L239.565 63.4185C238.762 63.8867 238.561 64.4887 238.829 65.0238C239.096 65.6927 239.765 65.6258 240.501 65.492ZM243.043 66.4284C242.775 65.7595 242.039 65.8264 241.237 65.9602L242.173 68.0337C243.11 67.5655 243.31 66.9635 243.043 66.4284Z" fill="#058E3F"/>
<path d="M13.286 157.127L11.8144 141.007L42.248 138.265L43.7195 154.385L13.286 157.127ZM12.5502 141.609L13.8879 156.391L42.9838 153.783L41.646 139.001L12.5502 141.609Z" fill="#058E3F"/>
<path d="M282.774 56.1947C279.362 56.1947 276.62 53.4523 276.62 50.0411C276.62 46.6299 279.362 43.8875 282.774 43.8875C286.185 43.8875 288.927 46.6299 288.927 50.0411C288.927 53.4523 286.185 56.1947 282.774 56.1947ZM282.774 44.5564C279.764 44.5564 277.289 47.0312 277.289 50.0411C277.289 53.051 279.764 55.5258 282.774 55.5258C285.784 55.5258 288.258 53.051 288.258 50.0411C288.258 47.0312 285.85 44.5564 282.774 44.5564Z" fill="#058E3F"/>
<path d="M283.041 53.2517V54.3219H282.573V53.2517C281.77 53.2517 281.035 52.9172 280.433 52.449L280.7 51.9139C281.235 52.3821 281.904 52.6497 282.64 52.7166V50.3086C281.637 50.0411 280.633 49.7736 280.633 48.5696C280.633 47.7001 281.235 46.9643 282.64 46.8305V45.7603H283.108V46.8305C283.777 46.8305 284.379 47.0312 284.981 47.3656L284.78 47.9007C284.312 47.5663 283.71 47.4325 283.175 47.3656V49.7735C284.178 50.0411 285.248 50.3086 285.248 51.5126C285.182 52.449 284.513 53.1848 283.041 53.2517ZM282.573 49.6398V47.3656C281.637 47.4325 281.235 47.9007 281.235 48.5027C281.235 49.2385 281.837 49.506 282.573 49.6398ZM284.513 51.5795C284.513 50.8437 283.844 50.6431 283.041 50.4424V52.7166C284.044 52.6497 284.513 52.1815 284.513 51.5795Z" fill="#058E3F"/>
<path d="M243.11 128.366C240.3 128.366 237.759 126.426 237.09 123.617C236.287 120.339 238.361 116.995 241.638 116.192C244.916 115.39 248.26 117.463 249.063 120.741C249.865 124.018 247.792 127.362 244.514 128.165C244.046 128.366 243.578 128.366 243.11 128.366ZM243.11 116.727C242.708 116.727 242.24 116.794 241.839 116.861C238.896 117.53 237.09 120.54 237.759 123.483C238.428 126.426 241.437 128.232 244.381 127.563C247.324 126.894 249.129 123.884 248.461 120.941C247.859 118.467 245.651 116.727 243.11 116.727Z" fill="#058E3F"/>
<path d="M154.351 18.4704C153.615 18.4704 152.879 18.3367 152.21 18.0691C150.672 17.4671 149.468 16.3301 148.732 14.8585C147.327 11.7817 148.665 8.10296 151.742 6.69833C154.819 5.29371 158.498 6.63145 159.902 9.70825C160.571 11.1798 160.638 12.8519 160.103 14.3903C159.501 15.9287 158.364 17.1327 156.892 17.8685C156.09 18.2698 155.22 18.4704 154.351 18.4704ZM154.351 6.83211C153.548 6.83211 152.812 7.03277 152.076 7.30031C149.334 8.57117 148.13 11.8486 149.334 14.591C149.936 15.9287 151.006 16.932 152.411 17.4671C153.816 18.0022 155.287 17.9353 156.625 17.3334C157.963 16.7314 158.966 15.6612 159.501 14.2566C160.036 12.8519 159.969 11.3804 159.367 10.0427C158.765 8.70494 157.695 7.70164 156.29 7.23343C155.621 6.96588 154.953 6.83211 154.351 6.83211Z" fill="#058E3F"/>
<path d="M155.889 15.1261L156.29 16.0625L155.889 16.2632L155.421 15.3268C154.685 15.6612 153.882 15.7281 153.08 15.4605V14.8585C153.749 15.0592 154.484 15.0592 155.153 14.7917L154.15 12.5844C153.147 12.785 152.076 12.9188 151.608 11.8486C151.274 11.046 151.474 10.1096 152.745 9.4407L152.344 8.50428L152.745 8.30362L153.147 9.24004C153.749 8.97249 154.417 8.9056 155.086 8.97249V9.57447C154.484 9.50758 153.949 9.57447 153.414 9.77513L154.417 11.9824C155.488 11.7817 156.558 11.5811 157.093 12.7182C157.494 13.5208 157.16 14.4572 155.889 15.1261ZM154.016 12.0493L153.08 9.97579C152.277 10.444 152.076 11.046 152.344 11.5811C152.545 12.25 153.214 12.1831 154.016 12.0493ZM156.491 12.9857C156.223 12.3168 155.488 12.3837 154.685 12.5175L155.621 14.591C156.558 14.1228 156.759 13.5208 156.491 12.9857Z" fill="#058E3F"/>
<path d="M132.077 258.26C131.007 258.26 129.937 258.06 128.867 257.658C126.593 256.789 124.787 255.117 123.783 252.909C121.71 248.361 123.716 242.943 128.265 240.87C130.472 239.866 132.947 239.799 135.221 240.602C137.428 241.405 139.167 243.01 140.237 245.15H140.371V245.418C142.378 249.966 140.371 255.317 135.823 257.391C134.619 257.993 133.348 258.26 132.077 258.26ZM132.077 240.803C130.873 240.803 129.669 241.07 128.599 241.539C124.385 243.478 122.512 248.495 124.452 252.709C126.392 256.923 131.341 258.795 135.622 256.856C139.836 254.916 141.709 249.966 139.769 245.752C138.833 243.679 137.161 242.141 135.087 241.338C134.084 240.937 133.081 240.803 132.077 240.803Z" fill="#058E3F"/>
<path d="M9.07207 112.246C8.87141 112.246 8.67075 112.246 8.47009 112.246C6.06216 112.112 3.85489 110.975 2.2496 109.169C-1.02786 105.424 -0.693428 99.6713 3.05224 96.3269C6.79791 93.0494 12.5502 93.3839 15.8277 97.1295C17.4329 98.9355 18.2356 101.277 18.1018 103.684C17.968 106.092 16.831 108.3 15.025 109.905C13.3528 111.443 11.2125 112.246 9.07207 112.246ZM9.00518 94.7216C7.06546 94.7216 5.05885 95.3905 3.45357 96.7951C-0.0245579 99.8719 -0.358993 105.156 2.71781 108.634C5.79461 112.112 11.0787 112.447 14.5568 109.437C18.0349 106.36 18.3694 101.076 15.2926 97.5978C13.6873 95.7249 11.3462 94.7216 9.00518 94.7216Z" fill="#058E3F"/>
<path d="M50.6089 188.698C50.542 188.698 50.4751 188.698 50.4082 188.698C47.8665 188.564 45.9268 186.491 46.0606 183.949C46.1275 181.407 48.2678 179.467 50.8096 179.601C52.0135 179.668 53.1506 180.136 53.9532 181.073C54.7559 182.009 55.2241 183.146 55.1572 184.35C55.0903 185.554 54.6221 186.691 53.6857 187.494C52.8162 188.23 51.746 188.698 50.6089 188.698ZM50.6089 180.203C48.5354 180.203 46.7963 181.875 46.7294 183.949C46.6626 186.089 48.3347 187.895 50.4751 187.962C51.5453 188.029 52.4817 187.628 53.2844 186.959C54.0201 186.223 54.4883 185.287 54.5552 184.283C54.6221 183.28 54.2208 182.277 53.5519 181.474C52.8162 180.738 51.8797 180.27 50.8764 180.203C50.6758 180.203 50.6758 180.203 50.6089 180.203Z" fill="#058E3F"/>
<path d="M51.8129 184.952L52.2811 185.554L52.0135 185.755L51.5453 185.153C51.0771 185.487 50.542 185.688 49.94 185.688L49.8731 185.287C50.4082 185.287 50.8764 185.153 51.2778 184.818L50.1407 183.481C49.4718 183.815 48.7361 184.083 48.201 183.414C47.7996 182.946 47.7996 182.21 48.5354 181.474L48.0672 180.872L48.3347 180.671L48.8029 181.273C49.2043 181.006 49.6056 180.805 50.0738 180.738L50.2076 181.14C49.8062 181.206 49.4049 181.34 49.0705 181.608L50.2076 182.946C50.8764 182.611 51.6122 182.277 52.2142 182.946C52.6155 183.481 52.6155 184.216 51.8129 184.952ZM49.8731 183.146L48.8029 181.875C48.3347 182.344 48.3347 182.812 48.6023 183.146C48.8698 183.481 49.4049 183.414 49.8731 183.146ZM51.8797 183.347C51.5453 182.946 51.0771 183.146 50.542 183.347L51.6122 184.618C52.0804 184.15 52.0804 183.681 51.8797 183.347Z" fill="#058E3F"/>
<path d="M181.373 274.781C180.035 274.781 178.764 274.246 177.895 273.176C176.29 271.236 176.557 268.36 178.497 266.755C180.437 265.15 183.313 265.417 184.918 267.357C186.523 269.297 186.256 272.173 184.316 273.778C183.446 274.447 182.443 274.781 181.373 274.781ZM181.373 266.354C180.503 266.354 179.634 266.621 178.898 267.223C177.226 268.561 177.025 271.036 178.43 272.708C179.768 274.38 182.242 274.581 183.915 273.176C185.587 271.838 185.788 269.364 184.383 267.691C183.647 266.822 182.51 266.354 181.373 266.354Z" fill="#058E3F"/>
<path d="M183.045 271.905L183.513 272.507L183.246 272.708L182.778 272.106C182.309 272.44 181.774 272.641 181.172 272.641L181.105 272.24C181.64 272.24 182.109 272.106 182.51 271.771L181.373 270.434C180.704 270.768 179.968 271.036 179.433 270.367C179.032 269.899 179.032 269.163 179.768 268.427L179.299 267.825L179.567 267.624L180.035 268.226C180.437 267.959 180.838 267.758 181.306 267.691L181.44 268.093C181.039 268.16 180.637 268.293 180.303 268.561L181.44 269.899C182.109 269.564 182.844 269.23 183.446 269.899C183.848 270.434 183.781 271.17 183.045 271.905ZM181.105 270.099L180.035 268.828C179.567 269.297 179.567 269.765 179.835 270.099C180.102 270.434 180.637 270.367 181.105 270.099ZM183.045 270.3C182.711 269.899 182.242 270.032 181.707 270.3L182.778 271.571C183.313 271.103 183.313 270.634 183.045 270.3Z" fill="#058E3F"/>
<path d="M64.9227 31.2459C64.7889 31.2459 64.6552 31.2459 64.5214 31.2459C63.3174 31.1121 62.2472 30.577 61.4446 29.6406C60.6419 28.7041 60.3075 27.5002 60.4413 26.2962C60.5751 25.0923 61.1101 24.0221 62.0466 23.2194C62.983 22.4168 64.187 22.0823 65.3909 22.2161C66.5949 22.3499 67.6651 22.885 68.4677 23.8214C69.2704 24.7578 69.6048 25.9618 69.471 27.1658C69.3372 28.3697 68.8022 29.4399 67.8657 30.2426C66.9962 30.9114 65.9929 31.2459 64.9227 31.2459ZM64.9227 22.8181C63.9863 22.8181 63.1168 23.1525 62.4479 23.6876C61.6452 24.3565 61.177 25.2929 61.0433 26.2962C60.9764 27.2995 61.2439 28.3697 61.9128 29.1055C62.5817 29.8412 63.5181 30.3763 64.5214 30.5101C65.5247 30.577 66.5949 30.3094 67.3306 29.6406C68.1333 28.9717 68.6015 28.0353 68.7353 27.032C68.8022 26.0287 68.5346 24.9585 67.8657 24.2227C67.1969 23.4201 66.2604 22.9519 65.2571 22.8181C65.1903 22.8181 65.0565 22.8181 64.9227 22.8181Z" fill="#058E3F"/>
<path opacity="0.2" d="M160.036 199.734C160.036 199.734 154.886 225.887 123.248 231.84C123.248 231.84 114.954 238.462 112.212 242.341C109.469 246.221 94.8212 252.842 79.9054 273.577C64.9896 294.312 42.7831 228.562 42.7831 228.562L91.8781 164.819L160.036 199.734Z" fill="black" fill-opacity="0.7"/>
<path d="M188.128 76.8628C188.128 76.8628 205.185 68.5019 208.93 69.9734C212.676 71.4449 216.288 80.0734 201.907 88.3005C187.527 96.5276 191.874 111.978 191.874 111.978H202.108C202.108 111.978 208.261 114.453 210.669 117.731C213.077 121.008 214.75 131.911 216.154 135.656C217.559 139.402 216.823 143.081 213.077 144.285C213.077 144.285 210.669 154.719 211.405 159.334C212.141 163.95 211.74 166.893 207.325 167.495C203.044 167.963 199.299 164.819 198.83 160.605C198.764 160.204 198.764 159.803 198.83 159.334L195.419 171.709L197.827 176.458C201.171 177.795 204.315 179.668 207.058 182.009C211.806 186.089 216.622 187.226 215.218 191.775C213.813 196.323 211.138 201.273 196.824 195.52C182.51 189.768 170.537 167.428 170.537 167.428L161.909 89.3707L188.128 76.8628Z" fill="white"/>
<path opacity="0.4" d="M206.121 121.677C198.362 132.245 206.924 144.352 206.924 144.352C206.924 144.352 201.573 147.362 201.439 154.92C201.372 158.064 202.175 162.478 203.111 166.625C200.235 165.287 198.563 162.344 198.764 159.201L195.352 171.575L197.76 176.324C200.302 177.26 202.643 178.598 204.783 180.203C202.643 185.086 202.041 191.106 202.175 197.326C200.302 196.858 198.496 196.189 196.69 195.52C182.376 189.835 170.403 167.428 170.403 167.428L161.775 89.3038L188.128 76.8628C188.128 76.8628 197.426 72.3145 203.847 70.5085C203.379 76.4615 204.516 82.6151 205.385 86.0932C204.315 86.8958 203.178 87.6316 201.974 88.3005C187.66 96.5944 191.941 111.978 191.941 111.978H202.175C202.175 111.978 207.994 114.386 210.536 117.463C208.797 118.533 207.258 120.005 206.121 121.677Z" fill="#9FFFB3"/>
<path d="M161.507 187.159C161.507 187.159 142.98 223.546 109.536 231.773C109.536 231.773 108.265 238.997 102.58 242.074C99.5701 243.746 87.3298 262.006 76.6279 278.661L17.2991 242.274C20.9779 238.662 25.1249 234.515 29.3388 230.168C41.7129 217.526 54.8896 203.413 58.9697 196.39C62.5816 190.169 67.1299 179.401 71.1432 169.234C76.2266 156.258 80.3736 144.352 80.3736 144.352L100.172 122.346L131.275 87.7654L132.612 92.1799L161.507 187.159Z" fill="white"/>
<path opacity="0.4" d="M131.275 87.8323L161.507 187.159C161.507 187.159 142.98 223.546 109.536 231.773C109.536 231.773 108.265 238.997 102.58 242.074C99.8377 243.545 89.7377 258.461 79.9722 273.511C83.5841 261.07 94.0854 241.271 94.0854 241.271C87.3298 233.311 89.3364 224.884 92.0119 227.292C94.6874 229.7 101.51 236.388 101.911 236.856C98.9681 233.378 98.2324 227.827 98.2324 227.827C98.2324 227.827 106.593 233.378 107.262 224.482C107.931 215.586 102.246 193.848 102.246 193.848L87.3298 136.66L131.275 87.8323Z" fill="#9FFFB3"/>
<path d="M207.258 198.396C204.449 198.396 200.904 197.527 196.556 195.788C182.309 190.102 170.27 167.762 170.136 167.562C170.069 167.428 170.136 167.227 170.27 167.093C170.403 167.026 170.604 167.093 170.738 167.227C170.872 167.428 182.778 189.567 196.824 195.186C203.446 197.794 208.061 198.396 211.004 196.992C213.278 195.922 214.148 193.781 214.816 191.641C215.753 188.564 213.679 187.226 210.669 185.153C209.465 184.35 208.128 183.414 206.79 182.277C204.114 179.936 201.038 178.063 197.693 176.725C197.626 176.725 197.56 176.658 197.493 176.591L195.085 171.842C195.018 171.775 195.018 171.709 195.085 171.575L198.496 159.201C198.563 159.067 198.697 158.933 198.897 158.933C199.098 158.933 199.165 159.134 199.165 159.268C199.165 159.669 199.165 160.07 199.165 160.472C199.566 164.552 203.245 167.495 207.325 167.093C208.863 166.893 209.934 166.424 210.536 165.555C211.606 164.15 211.472 161.742 211.071 159.334C210.402 154.719 212.676 144.619 212.81 144.218C212.81 144.084 212.944 144.017 213.01 143.95C214.415 143.482 215.418 142.68 215.953 141.543C216.689 140.004 216.689 137.931 215.887 135.79C215.418 134.452 214.883 132.312 214.281 129.77C213.278 125.423 211.94 120.005 210.469 117.998C208.261 115.055 202.777 112.714 202.175 112.447H192.008C191.874 112.447 191.74 112.38 191.674 112.179C191.607 112.045 187.46 96.4607 201.907 88.1667C211.205 82.8157 212.275 77.7323 212.074 75.1906C211.873 72.6489 210.335 70.9099 208.93 70.4416C205.987 69.3046 193.078 75.0568 188.396 77.331L162.043 89.772C161.909 89.8389 161.708 89.772 161.574 89.6382C161.507 89.5044 161.574 89.3038 161.708 89.17L188.062 76.729C188.73 76.3946 205.318 68.3682 209.131 69.8397C210.736 70.4416 212.475 72.3145 212.676 75.1906C212.877 77.8661 211.806 83.2171 202.175 88.7687C189.199 96.26 191.74 109.838 192.209 111.778H202.175C202.242 111.778 202.242 111.778 202.309 111.778C202.576 111.912 208.596 114.32 211.004 117.597C212.609 119.737 213.813 125.021 214.95 129.637C215.485 132.045 216.02 134.319 216.555 135.59C217.425 137.931 217.425 140.205 216.622 141.877C216.02 143.148 214.883 144.084 213.479 144.619C213.144 146.024 211.205 155.187 211.807 159.334C212.208 161.876 212.342 164.418 211.138 166.09C210.402 167.093 209.198 167.695 207.459 167.896C203.245 168.364 199.499 165.488 198.697 161.408L195.82 171.775L198.095 176.324C201.439 177.661 204.583 179.534 207.258 181.942C208.596 183.079 209.934 184.016 211.138 184.818C214.214 186.892 216.622 188.564 215.552 192.109C214.883 194.316 213.88 196.657 211.405 197.861C210.134 198.129 208.797 198.396 207.258 198.396Z" fill="#058E3F"/>
<path d="M209.532 145.021C207.726 145.021 206.121 144.619 204.716 143.75C202.242 142.278 200.436 139.536 199.499 135.523C197.225 126.359 201.707 116.46 204.85 115.523C205.051 115.457 205.185 115.59 205.252 115.724C205.318 115.925 205.185 116.059 205.051 116.125C202.509 116.928 197.894 126.159 200.168 135.322C201.105 139.135 202.777 141.743 205.118 143.148C207.793 144.753 210.937 144.352 213.077 143.817C213.278 143.75 213.412 143.884 213.479 144.084C213.546 144.285 213.412 144.419 213.211 144.486C211.873 144.887 210.669 145.021 209.532 145.021Z" fill="#058E3F"/>
<path d="M198.764 159.535C198.563 159.535 198.429 159.401 198.429 159.201C198.429 158.732 198.162 147.362 202.509 144.419C202.643 144.285 202.844 144.352 202.977 144.486C203.111 144.619 203.044 144.82 202.911 144.954C198.83 147.696 199.098 159.067 199.165 159.201C199.098 159.401 198.897 159.535 198.764 159.535Z" fill="#058E3F"/>
<path opacity="0.4" d="M74.2869 217.058C74.2869 217.058 61.779 215.52 58.9697 209.901C56.6956 205.286 44.1208 222.61 29.3388 230.168C41.7129 217.526 54.8896 203.413 58.9697 196.39C62.5816 190.169 67.1299 179.401 71.1432 169.234C70.9425 177.661 66.4611 190.504 67.7319 197.259C64.8558 197.995 63.1836 200.938 63.8525 203.747C64.8558 209.165 74.2869 217.058 74.2869 217.058Z" fill="#9FFFB3"/>
<path d="M76.6279 278.995C76.561 278.995 76.4941 278.995 76.4272 278.928C76.2935 278.862 76.2266 278.594 76.3603 278.46C91.1424 255.451 99.9046 243.077 102.446 241.739C107.864 238.796 109.202 231.773 109.202 231.706C109.202 231.572 109.336 231.439 109.469 231.439C142.378 223.345 161.039 187.36 161.24 186.959C161.307 186.825 161.507 186.758 161.708 186.825C161.842 186.892 161.909 187.093 161.842 187.293C161.641 187.628 142.913 223.747 109.804 232.041C109.536 233.311 107.998 239.465 102.781 242.341C101.109 243.278 95.2894 250.301 76.9623 278.862C76.8286 278.995 76.7617 278.995 76.6279 278.995Z" fill="#058E3F"/>
<path d="M17.2991 242.676C17.2323 242.676 17.0985 242.676 17.0316 242.609C16.8978 242.475 16.8978 242.274 17.0316 242.141C30.2083 229.098 53.1506 205.821 58.6353 196.323C66.7286 182.344 79.9054 144.686 80.0391 144.285C80.0391 144.218 80.106 144.218 80.106 144.151L130.94 87.6316C131.074 87.4978 131.275 87.4978 131.408 87.6316C131.542 87.7654 131.542 87.966 131.408 88.0998L80.6411 144.552C80.0391 146.291 67.1968 182.879 59.2373 196.591C53.6857 206.155 30.6765 229.499 17.4998 242.542C17.4998 242.609 17.4329 242.676 17.2991 242.676Z" fill="#058E3F"/>
<path d="M112.279 144.753C112.145 144.753 112.011 144.686 111.944 144.552C109.804 138.332 102.112 131.376 101.978 131.309C101.844 131.175 101.844 130.974 101.978 130.841C102.112 130.707 102.313 130.707 102.446 130.841C102.781 131.108 110.339 137.998 112.546 144.352C112.613 144.552 112.546 144.686 112.346 144.753H112.279Z" fill="#058E3F"/>
<path d="M110.406 29.1055H194.483C196.958 29.1055 198.964 31.1121 198.964 33.5869V212.576C198.964 215.051 196.958 217.058 194.483 217.058H110.406C107.931 217.058 105.924 215.051 105.924 212.576V33.6538C105.924 31.1121 107.931 29.1055 110.406 29.1055Z" fill="#058E3F"/>
<path d="M170.872 34.2558L169.066 37.5332C168.664 38.269 167.929 38.7372 167.126 38.7372H137.696C136.893 38.7372 136.157 38.269 135.756 37.6001L134.017 34.3227C133.616 33.5869 132.88 33.1856 132.077 33.1856H111.476C110.272 33.1856 109.269 34.1889 109.269 35.3929V211.306C109.269 212.51 110.272 213.513 111.476 213.513H193.413C194.617 213.513 195.62 212.51 195.62 211.306V35.326C195.62 34.122 194.617 33.1187 193.413 33.1187H172.878C172.009 33.1187 171.273 33.52 170.872 34.2558Z" fill="#9FFFB3"/>
<path d="M193.413 213.78H111.476C110.071 213.78 108.934 212.643 108.934 211.239V35.326C108.934 34.6571 109.202 33.9882 109.67 33.52C110.138 33.0518 110.807 32.7843 111.476 32.7843H132.077C133.014 32.7843 133.883 33.3194 134.351 34.122L136.09 37.3995C136.425 38.0014 137.027 38.4028 137.763 38.4028H167.193C167.862 38.4028 168.531 38.0014 168.865 37.3995L170.671 34.122C171.139 33.3194 172.009 32.7843 172.878 32.7843H193.413C194.817 32.7843 195.954 33.9213 195.954 35.326V211.239C195.954 212.643 194.817 213.78 193.413 213.78ZM111.476 33.3862C110.941 33.3862 110.473 33.5869 110.138 33.9213C109.804 34.2558 109.603 34.724 109.603 35.2591V211.172C109.603 212.242 110.473 213.045 111.476 213.045H193.413C194.483 213.045 195.285 212.175 195.285 211.172V35.326C195.285 34.2558 194.416 33.4531 193.413 33.4531H172.878C172.143 33.4531 171.541 33.7876 171.206 34.3895L169.4 37.667C168.932 38.4697 168.129 39.0048 167.193 39.0048H137.763C136.826 39.0048 135.957 38.4697 135.488 37.667L133.682 34.3895C133.348 33.7876 132.746 33.3862 132.01 33.3862H111.476Z" fill="#058E3F"/>
<path d="M146.057 36.1286C145.187 36.1286 144.518 35.4597 144.518 34.5902C144.518 33.7207 145.187 33.0518 146.057 33.0518C146.926 33.0518 147.595 33.7207 147.595 34.5902C147.595 35.4597 146.859 36.1286 146.057 36.1286ZM146.057 33.7207C145.588 33.7207 145.187 34.122 145.187 34.5902C145.187 35.0584 145.588 35.4597 146.057 35.4597C146.525 35.4597 146.926 35.0584 146.926 34.5902C146.926 34.122 146.525 33.7207 146.057 33.7207Z" fill="white"/>
<path d="M159.233 35.6604C158.966 35.6604 158.698 35.5266 158.498 35.326C158.297 35.1253 158.163 34.8578 158.163 34.5902C158.163 33.9882 158.631 33.52 159.233 33.52C159.835 33.52 160.304 33.9882 160.304 34.5902C160.304 35.1922 159.835 35.6604 159.233 35.6604ZM159.233 34.1889C159.033 34.1889 158.832 34.3896 158.832 34.5902C158.832 34.724 158.899 34.7909 158.966 34.8578C159.033 34.9247 159.166 34.9915 159.233 34.9915C159.434 34.9915 159.635 34.7909 159.635 34.5902C159.635 34.3896 159.501 34.1889 159.233 34.1889Z" fill="white"/>
<path d="M156.692 34.122H149.401C149.133 34.122 148.933 34.3227 148.933 34.5902C148.933 34.8578 149.133 35.0584 149.401 35.0584H156.692C156.959 35.0584 157.16 34.8578 157.16 34.5902C157.16 34.3896 156.959 34.122 156.692 34.122Z" fill="white"/>
<path d="M124.452 41.212H116.626C116.426 41.212 116.292 41.0783 116.292 40.8776V37.5332C116.292 37.3326 116.426 37.1988 116.626 37.1988H124.452C124.653 37.1988 124.787 37.3326 124.787 37.5332V40.8776C124.787 41.0783 124.653 41.212 124.452 41.212ZM116.961 40.5432H124.118V37.8677H116.961V40.5432Z" fill="#058E3F"/>
<path d="M125.723 40.6769H124.519C124.318 40.6769 124.185 40.5432 124.185 40.3425V38.1352C124.185 37.9346 124.318 37.8008 124.519 37.8008H125.723C125.924 37.8008 126.057 37.9346 126.057 38.1352V40.3425C126.057 40.4763 125.857 40.6769 125.723 40.6769ZM124.787 40.0081H125.322V38.4697H124.787V40.0081Z" fill="#058E3F"/>
<path d="M180.102 41.212H178.697C178.497 41.212 178.363 41.0783 178.363 40.8776V39.6736C178.363 39.473 178.497 39.3392 178.697 39.3392H180.102C180.303 39.3392 180.436 39.473 180.436 39.6736V40.8776C180.436 41.0783 180.236 41.212 180.102 41.212ZM179.032 40.5432H179.768V40.0081H179.032V40.5432Z" fill="#058E3F"/>
<path d="M182.778 41.212H181.373C181.172 41.212 181.038 41.0783 181.038 40.8776V38.4697C181.038 38.269 181.172 38.1352 181.373 38.1352H182.778C182.978 38.1352 183.112 38.269 183.112 38.4697V40.8776C183.112 41.0783 182.978 41.212 182.778 41.212ZM181.707 40.5432H182.443V38.8041H181.707V40.5432Z" fill="#058E3F"/>
<path d="M185.52 41.212H184.115C183.915 41.212 183.781 41.0783 183.781 40.8776V37.2657C183.781 37.065 183.915 36.9313 184.115 36.9313H185.52C185.721 36.9313 185.854 37.065 185.854 37.2657V40.8776C185.854 41.0783 185.721 41.212 185.52 41.212ZM184.45 40.5432H185.185V37.6001H184.45V40.5432Z" fill="#058E3F"/>
<path d="M188.195 41.212H186.791C186.59 41.212 186.456 41.0783 186.456 40.8776V35.9948C186.456 35.7942 186.59 35.6604 186.791 35.6604H188.195C188.396 35.6604 188.53 35.7942 188.53 35.9948V40.8776C188.53 41.0783 188.396 41.212 188.195 41.212ZM187.125 40.5432H187.861V36.3293H187.125V40.5432Z" fill="#058E3F"/>
<path opacity="0.5" d="M195.018 71.98H109.804V153.315H195.018V71.98Z" fill="white"/>
<path d="M188.195 81.8124H116.626V92.5143H188.195V81.8124Z" fill="white"/>
<path d="M188.195 92.8488H116.626C116.426 92.8488 116.292 92.715 116.292 92.5144V81.8124C116.292 81.6118 116.426 81.478 116.626 81.478H188.195C188.396 81.478 188.53 81.6118 188.53 81.8124V92.5144C188.53 92.715 188.396 92.8488 188.195 92.8488ZM116.961 92.1799H187.861V82.1469H116.961V92.1799Z" fill="#058E3F"/>
<path d="M188.195 101.879H116.626V112.58H188.195V101.879Z" fill="white"/>
<path d="M188.195 112.915H116.626C116.426 112.915 116.292 112.781 116.292 112.58V101.879C116.292 101.678 116.426 101.544 116.626 101.544H188.195C188.396 101.544 188.53 101.678 188.53 101.879V112.58C188.53 112.714 188.396 112.915 188.195 112.915ZM116.961 112.246H187.861V102.213H116.961V112.246Z" fill="#058E3F"/>
<path d="M188.195 120.139H116.626V130.841H188.195V120.139Z" fill="white"/>
<path d="M188.195 131.108H116.626C116.426 131.108 116.292 130.974 116.292 130.774V120.072C116.292 119.871 116.426 119.737 116.626 119.737H188.195C188.396 119.737 188.53 119.871 188.53 120.072V130.774C188.53 130.974 188.396 131.108 188.195 131.108ZM116.961 130.439H187.861V120.406H116.961V130.439Z" fill="#058E3F"/>
<path d="M150.538 134.72H116.626V147.228H150.538V134.72Z" fill="white"/>
<path d="M150.538 147.562H116.626C116.426 147.562 116.292 147.429 116.292 147.228V134.72C116.292 134.519 116.426 134.386 116.626 134.386H150.538C150.739 134.386 150.872 134.519 150.872 134.72V147.228C150.872 147.429 150.739 147.562 150.538 147.562ZM116.961 146.893H150.204V135.054H116.961V146.893Z" fill="#058E3F"/>
<path d="M188.262 134.72H154.351V147.228H188.262V134.72Z" fill="white"/>
<path d="M188.195 147.562H154.284C154.083 147.562 153.949 147.429 153.949 147.228V134.72C153.949 134.519 154.083 134.386 154.284 134.386H188.195C188.396 134.386 188.53 134.519 188.53 134.72V147.228C188.53 147.429 188.396 147.562 188.195 147.562ZM154.685 146.893H187.928V135.054H154.685V146.893Z" fill="#058E3F"/>
<path d="M121.108 79.9396V80.2071H118.834V77.0634H120.974V77.331H119.168V78.4681H120.773V78.7356H119.168V79.9396H121.108Z" fill="#058E3F"/>
<path d="M125.723 78.8694V80.274H125.389V78.9363C125.389 78.4012 125.121 78.2005 124.72 78.2005C124.318 78.2005 123.917 78.535 123.917 78.9363C123.917 79.0032 123.917 79.0032 123.917 79.0701V80.3409H123.583V79.0032C123.583 78.4681 123.315 78.2674 122.914 78.2674C122.512 78.2674 122.111 78.6019 122.111 79.0032C122.111 79.0701 122.111 79.0701 122.111 79.137V80.4078H121.777V77.9999H122.111V78.4012C122.312 78.0668 122.646 77.933 122.981 77.933C123.315 77.933 123.649 78.1336 123.85 78.4681C124.051 78.1336 124.385 77.933 124.787 77.933C125.255 77.933 125.723 78.2674 125.723 78.7356C125.723 78.7356 125.723 78.8025 125.723 78.8694Z" fill="#058E3F"/>
<path d="M128.398 78.7356V80.2072H128.064V79.8058C127.863 80.0734 127.596 80.2072 127.261 80.2072C126.726 80.2072 126.392 79.9396 126.392 79.5383C126.392 79.137 126.659 78.8694 127.328 78.8694H128.064V78.7356C128.064 78.3343 127.796 78.1336 127.395 78.1336C127.128 78.1336 126.793 78.2005 126.592 78.4012L126.459 78.1336C126.726 77.933 127.061 77.7992 127.395 77.7992C127.863 77.7323 128.265 78.0668 128.332 78.4681C128.398 78.6019 128.398 78.6687 128.398 78.7356ZM128.064 79.5383V79.137H127.328C126.86 79.137 126.726 79.3376 126.726 79.5383C126.726 79.7389 126.927 80.0065 127.328 80.0065C127.663 80.0065 127.93 79.8058 128.064 79.5383Z" fill="#058E3F"/>
<path d="M129.201 77.1303C129.201 76.9966 129.335 76.9297 129.469 76.9297C129.602 76.9297 129.669 77.0634 129.669 77.1303C129.669 77.2641 129.536 77.331 129.469 77.331C129.335 77.331 129.201 77.1972 129.201 77.1303ZM129.268 77.8661H129.602V80.274H129.268V77.8661Z" fill="#058E3F"/>
<path d="M130.472 76.8628H130.806V80.2071H130.472V76.8628Z" fill="#058E3F"/>
<path d="M123.315 88.1667V88.4342H121.041V85.2906H123.181V85.5581H121.375V86.6952H122.981V86.9627H121.375V88.1667H123.315Z" fill="#058E3F"/>
<path d="M127.93 87.0965V88.5011H127.596V87.1634C127.596 86.6283 127.328 86.4276 126.927 86.4276C126.526 86.4276 126.124 86.7621 126.124 87.1634C126.124 87.2303 126.124 87.2303 126.124 87.2972V88.568H125.79V87.2303C125.79 86.6952 125.522 86.4945 125.121 86.4945C124.72 86.4945 124.318 86.829 124.318 87.2303C124.318 87.2972 124.318 87.2972 124.318 87.364V88.6349H124.051V86.227H124.385V86.6283C124.586 86.3607 124.92 86.1601 125.255 86.1601C125.589 86.1601 125.924 86.3607 126.124 86.6952C126.325 86.3607 126.659 86.1601 127.061 86.1601C127.529 86.1601 127.997 86.4945 127.997 87.0296C127.93 86.9627 127.93 87.0296 127.93 87.0965Z" fill="#058E3F"/>
<path d="M130.606 86.9627V88.4342H130.271V88.0329C130.071 88.3005 129.803 88.4342 129.469 88.4342C128.934 88.4342 128.599 88.1667 128.599 87.7654C128.599 87.364 128.867 87.0965 129.536 87.0965H130.271V86.9627C130.271 86.5614 130.004 86.3607 129.602 86.3607C129.335 86.3607 129 86.4276 128.8 86.6283L128.666 86.3607C128.934 86.1601 129.268 86.0263 129.602 86.0263C130.071 85.9594 130.472 86.2939 130.539 86.7621C130.606 86.829 130.606 86.8958 130.606 86.9627ZM130.271 87.6985V87.2972H129.536C129.067 87.2972 128.934 87.4978 128.934 87.6985C128.934 87.8992 129.134 88.1667 129.536 88.1667C129.87 88.2336 130.204 88.0329 130.271 87.6985Z" fill="#058E3F"/>
<path d="M131.408 85.2906C131.408 85.1568 131.542 85.0899 131.676 85.0899C131.81 85.0899 131.877 85.1568 131.877 85.2906C131.877 85.4243 131.743 85.5581 131.676 85.5581C131.609 85.5581 131.408 85.4243 131.408 85.2906ZM131.475 86.0263H131.81V88.4342H131.475V86.0263Z" fill="#058E3F"/>
<path d="M132.679 85.0899H133.014V88.4342H132.679V85.0899Z" fill="#058E3F"/>
<path d="M136.09 87.0965V88.5011H135.756V87.1634C135.823 86.829 135.555 86.4276 135.221 86.4276C135.154 86.4276 135.154 86.4276 135.087 86.4276C134.686 86.3607 134.284 86.6952 134.218 87.1634C134.218 87.2303 134.218 87.2303 134.218 87.2972V88.568H133.883V86.1601H134.218V86.6283C134.418 86.2939 134.753 86.1601 135.154 86.1601C135.622 86.0932 136.09 86.4945 136.157 86.9627C136.09 86.9627 136.09 87.0296 136.09 87.0965Z" fill="#058E3F"/>
<path d="M138.766 86.9627V88.4342H138.431V88.0329C138.231 88.3005 137.963 88.4342 137.629 88.4342C137.094 88.4342 136.759 88.1667 136.759 87.7654C136.759 87.364 137.027 87.0965 137.696 87.0965H138.431V86.9627C138.431 86.5614 138.231 86.3607 137.763 86.3607C137.495 86.3607 137.161 86.4276 136.96 86.6283L136.826 86.3607C137.094 86.1601 137.428 86.0263 137.763 86.0263C138.231 85.9594 138.632 86.2939 138.699 86.7621C138.766 86.829 138.766 86.8958 138.766 86.9627ZM138.431 87.6985V87.2972H137.696C137.227 87.2972 137.094 87.4978 137.094 87.6985C137.094 87.8992 137.294 88.1667 137.696 88.1667C138.03 88.2336 138.365 88.0329 138.431 87.6985Z" fill="#058E3F"/>
<path d="M143.582 87.0965V88.5011H143.247V87.1634C143.247 86.6283 142.98 86.4276 142.578 86.4276C142.177 86.4276 141.776 86.7621 141.776 87.1634C141.776 87.2303 141.776 87.2303 141.776 87.2972V88.568H141.441V87.2303C141.441 86.6952 141.174 86.4945 140.773 86.4945C140.371 86.4945 139.97 86.829 139.97 87.2303C139.97 87.2972 139.97 87.2972 139.97 87.364V88.6349H139.635V86.227H139.97V86.6283C140.171 86.3607 140.505 86.1601 140.839 86.1601C141.174 86.1601 141.508 86.3607 141.709 86.6952C141.91 86.3607 142.244 86.1601 142.645 86.1601C143.114 86.1601 143.582 86.4945 143.582 87.0296C143.582 86.9627 143.582 87.0296 143.582 87.0965Z" fill="#058E3F"/>
<path d="M146.525 87.364H144.518C144.585 87.8323 144.986 88.2336 145.455 88.1667C145.722 88.1667 145.99 88.0329 146.19 87.8323L146.391 88.0329C145.923 88.568 145.12 88.568 144.585 88.0998C144.318 87.8991 144.184 87.5647 144.184 87.2303C144.184 86.6283 144.652 86.0932 145.254 86.0263H145.321C145.923 86.0263 146.458 86.4945 146.458 87.1634V87.2303C146.525 87.2303 146.525 87.2972 146.525 87.364ZM144.518 87.0965H146.19C146.19 86.6283 145.789 86.227 145.321 86.227C144.92 86.2939 144.518 86.6283 144.518 87.0965Z" fill="#058E3F"/>
<path d="M151.207 87.2303C151.207 87.966 150.939 88.4342 150.471 88.4342C150.204 88.4342 150.003 88.2336 149.936 87.966C149.936 87.966 149.936 87.966 149.936 87.8991C149.735 88.2336 149.401 88.4342 149 88.3673C148.331 88.3673 147.863 87.8323 147.863 87.2303C147.863 86.5614 148.398 86.0932 149 86.0932C149.334 86.0932 149.735 86.227 149.869 86.5614V86.1601H150.137V87.8991C150.137 88.1667 150.27 88.2336 150.404 88.2336C150.672 88.2336 150.872 87.8991 150.872 87.2972C150.872 86.3607 150.137 85.5581 149.2 85.4912C149.133 85.4912 149.067 85.4912 149 85.4912C147.996 85.4912 147.194 86.2938 147.194 87.2972C147.194 88.3005 147.996 89.1031 149 89.1031C149.334 89.1031 149.602 89.0362 149.869 88.9024L149.936 89.1031C149.668 89.2369 149.334 89.3038 149 89.3038C147.863 89.3038 146.926 88.3674 146.926 87.2303C146.926 86.0932 147.863 85.1568 149 85.1568C150.07 85.0899 151.006 85.8925 151.073 86.9627C151.14 87.0965 151.207 87.1634 151.207 87.2303ZM149.936 87.2972C150.003 86.8289 149.602 86.4276 149.133 86.3607C148.665 86.2939 148.264 86.6952 148.197 87.1634C148.197 87.2303 148.197 87.2972 148.197 87.2972C148.13 87.7654 148.531 88.1667 149 88.2336C149.468 88.3005 149.869 87.8991 149.936 87.4309C149.936 87.364 149.936 87.364 149.936 87.2972Z" fill="#058E3F"/>
<path d="M153.882 87.364H151.876C151.876 87.8323 152.344 88.2336 152.812 88.1667C153.08 88.1667 153.347 88.0329 153.548 87.8323L153.749 88.0329C153.28 88.568 152.478 88.568 151.943 88.0998C151.675 87.8991 151.541 87.5647 151.541 87.2303C151.541 86.6283 152.01 86.0932 152.612 86.0263H152.678C153.28 86.0263 153.815 86.4945 153.815 87.1634V87.2303C153.882 87.2303 153.882 87.2972 153.882 87.364ZM151.876 87.0965H153.548C153.548 86.6283 153.147 86.227 152.678 86.227C152.277 86.2939 151.876 86.6283 151.876 87.0965Z" fill="#058E3F"/>
<path d="M158.498 87.0965V88.5011H158.163V87.1634C158.163 86.6283 157.896 86.4276 157.494 86.4276C157.093 86.4276 156.692 86.7621 156.692 87.1634C156.692 87.2303 156.692 87.2303 156.692 87.2972V88.568H156.357V87.2303C156.357 86.6952 156.09 86.4945 155.688 86.4945C155.287 86.4945 154.886 86.829 154.886 87.2303C154.886 87.2972 154.886 87.2972 154.886 87.364V88.6349H154.551V86.227H154.886V86.6283C155.086 86.3607 155.421 86.1601 155.755 86.1601C156.09 86.1601 156.424 86.3607 156.625 86.6952C156.825 86.3607 157.16 86.1601 157.561 86.1601C158.029 86.1601 158.498 86.4945 158.498 86.9627C158.498 86.9627 158.498 87.0296 158.498 87.0965Z" fill="#058E3F"/>
<path d="M161.173 86.9627V88.4342H160.839V88.0329C160.638 88.3005 160.37 88.4342 160.036 88.4342C159.501 88.4342 159.166 88.1667 159.166 87.7654C159.166 87.364 159.434 87.0965 160.103 87.0965H160.839V86.9627C160.839 86.5614 160.638 86.3607 160.17 86.3607C159.902 86.3607 159.568 86.4276 159.367 86.6283L159.233 86.3607C159.501 86.1601 159.835 86.0263 160.237 86.0263C160.705 85.9594 161.106 86.2939 161.173 86.7621C161.173 86.829 161.173 86.8958 161.173 86.9627ZM160.839 87.6985V87.2972H160.103C159.635 87.2972 159.501 87.4978 159.501 87.6985C159.501 87.8992 159.702 88.1667 160.103 88.1667C160.437 88.2336 160.705 88.0329 160.839 87.6985Z" fill="#058E3F"/>
<path d="M161.976 85.2906C161.976 85.1568 162.109 85.0899 162.243 85.0899C162.377 85.0899 162.511 85.2237 162.511 85.3574C162.511 85.4912 162.377 85.5581 162.243 85.5581C162.109 85.5581 161.976 85.4243 161.976 85.2906ZM162.043 86.0263H162.377V88.4342H162.043V86.0263Z" fill="#058E3F"/>
<path d="M163.247 85.0899H163.581V88.4342H163.247V85.0899Z" fill="#058E3F"/>
<path d="M164.25 88.2336C164.25 88.0998 164.317 87.966 164.451 87.966C164.584 87.966 164.718 88.0998 164.718 88.2336C164.718 88.3674 164.584 88.5011 164.451 88.5011C164.384 88.4342 164.25 88.3674 164.25 88.2336Z" fill="#058E3F"/>
<path d="M165.119 87.2303C165.119 86.5614 165.588 86.0263 166.256 86.0263H166.323C166.725 86.0263 167.059 86.1601 167.26 86.4945L166.992 86.6283C166.858 86.4276 166.591 86.2939 166.323 86.2939C165.788 86.3607 165.454 86.7621 165.454 87.2972C165.521 87.7654 165.855 88.0998 166.323 88.1667C166.591 88.1667 166.858 88.0329 166.992 87.8323L167.26 87.966C167.059 88.3005 166.725 88.4342 166.323 88.4342C165.654 88.4342 165.119 87.966 165.119 87.2972C165.119 87.2972 165.119 87.2972 165.119 87.2303Z" fill="#058E3F"/>
<path d="M167.594 87.2303C167.594 86.5614 168.129 86.0263 168.798 86.0263C169.467 86.0263 170.002 86.5614 170.002 87.2303C170.002 87.8991 169.467 88.4342 168.798 88.4342C168.129 88.4342 167.594 87.966 167.594 87.2972C167.594 87.2972 167.594 87.2972 167.594 87.2303ZM169.735 87.2303C169.735 86.7621 169.333 86.3607 168.798 86.3607C168.33 86.3607 167.929 86.7621 167.929 87.2972C167.929 87.7654 168.33 88.1667 168.865 88.1667C169.333 88.1667 169.735 87.7654 169.735 87.2303Z" fill="#058E3F"/>
<path d="M174.617 87.0965V88.5011H174.283V87.1634C174.283 86.6283 174.015 86.4276 173.614 86.4276C173.213 86.4276 172.811 86.7621 172.811 87.1634C172.811 87.2303 172.811 87.2303 172.811 87.2972V88.568H172.477V87.2303C172.477 86.6952 172.209 86.4945 171.808 86.4945C171.407 86.4945 171.005 86.829 171.005 87.2303C171.005 87.2972 171.005 87.2972 171.005 87.364V88.6349H170.671V86.227H171.005V86.6283C171.206 86.3607 171.541 86.1601 171.875 86.1601C172.209 86.1601 172.544 86.3607 172.744 86.6952C172.945 86.3607 173.28 86.1601 173.681 86.1601C174.149 86.1601 174.617 86.4945 174.617 87.0296C174.617 86.9627 174.617 87.0296 174.617 87.0965Z" fill="#058E3F"/>
<path d="M121.643 107.296L122.178 107.631L122.111 107.831L121.509 107.497V108.166H121.308V107.497L120.706 107.831L120.573 107.631L121.175 107.296L120.573 106.962L120.706 106.761L121.308 107.096V106.427H121.509V107.096L122.111 106.761L122.178 106.962L121.643 107.296Z" fill="#058E3F"/>
<path d="M123.449 107.296L123.984 107.631L123.85 107.831L123.315 107.497V108.166H123.114V107.497L122.579 107.831L122.445 107.631L123.047 107.296L122.445 106.962L122.579 106.761L123.114 107.096V106.427H123.315V107.096L123.85 106.761L123.984 106.962L123.449 107.296Z" fill="#058E3F"/>
<path d="M125.322 107.296L125.857 107.631L125.723 107.831L125.188 107.497V108.166H124.987V107.497L124.452 107.831L124.318 107.631L124.853 107.296L124.318 106.962L124.452 106.761L124.987 107.096V106.427H125.188V107.096L125.723 106.761L125.857 106.962L125.322 107.296Z" fill="#058E3F"/>
<path d="M127.128 107.296L127.663 107.631L127.596 107.831L126.994 107.497V108.166H126.793V107.497L126.191 107.831L126.057 107.631L126.659 107.296L126.057 106.962L126.191 106.761L126.793 107.096V106.427H126.994V107.096L127.596 106.761L127.663 106.962L127.128 107.296Z" fill="#058E3F"/>
<path d="M129 107.296L129.536 107.631L129.402 107.831L128.867 107.497V108.166H128.666V107.497L128.131 107.831L127.997 107.631L128.599 107.296L127.997 106.962L128.131 106.761L128.666 107.096V106.427H128.867V107.096L129.402 106.761L129.536 106.962L129 107.296Z" fill="#058E3F"/>
<path d="M130.806 107.296L131.341 107.631L131.208 107.831L130.673 107.497V108.166H130.472V107.497L129.937 107.831L129.803 107.631L130.338 107.296L129.803 106.962L129.937 106.761L130.472 107.096V106.427H130.739V107.096L131.275 106.761L131.408 106.962L130.806 107.296Z" fill="#058E3F"/>
<path d="M132.679 107.296L133.214 107.631L133.147 107.831L132.545 107.497V108.166H132.345V107.497L131.743 107.831L131.609 107.631L132.211 107.296L131.609 106.962L131.743 106.761L132.345 107.096V106.427H132.545V107.096L133.147 106.761L133.214 106.962L132.679 107.296Z" fill="#058E3F"/>
<path d="M134.485 107.296L135.02 107.631L134.886 107.831L134.284 107.497V108.166H134.084V107.497L133.549 107.831L133.415 107.631L134.017 107.296L133.415 106.962L133.549 106.761L134.084 107.096V106.427H134.284V107.096L134.886 106.761L135.02 106.962L134.485 107.296Z" fill="#058E3F"/>
<path d="M136.291 107.296L136.826 107.631L136.692 107.831L136.157 107.497V108.166H135.957V107.497L135.422 107.831L135.288 107.631L135.823 107.296L135.288 106.962L135.422 106.761L135.957 107.096V106.427H136.157V107.096L136.692 106.761L136.826 106.962L136.291 107.296Z" fill="#058E3F"/>
<path d="M138.164 107.296L138.699 107.631L138.632 107.831L138.03 107.497V108.166H137.829V107.497L137.227 107.831L137.094 107.631L137.629 107.296L137.094 106.962L137.227 106.761L137.829 107.096V106.427H138.03V107.096L138.632 106.761L138.699 106.962L138.164 107.296Z" fill="#058E3F"/>
<path d="M139.97 107.296L140.505 107.631L140.438 107.831L139.836 107.497V108.166H139.635V107.497L139.1 107.831L138.967 107.631L139.569 107.296L138.967 106.962L139.1 106.761L139.635 107.096V106.427H139.836V107.096L140.438 106.761L140.505 106.962L139.97 107.296Z" fill="#058E3F"/>
<path d="M121.308 98.1997C121.308 98.8686 120.84 99.2699 120.038 99.2699H119.168V100.273H118.834V97.1295H120.038C120.84 97.1295 121.308 97.5309 121.308 98.1997ZM120.974 98.1997C120.974 97.6646 120.64 97.3971 120.038 97.3971H119.235V99.0024H120.104C120.64 99.0024 120.974 98.7348 120.974 98.1997Z" fill="#058E3F"/>
<path d="M123.783 98.8017V100.273H123.449V99.8719C123.248 100.139 122.981 100.273 122.646 100.273C122.111 100.273 121.777 100.006 121.777 99.6044C121.777 99.203 122.044 98.9355 122.713 98.9355H123.449V98.8017C123.449 98.4004 123.181 98.1997 122.78 98.1997C122.512 98.1997 122.178 98.2666 121.977 98.4673L121.843 98.1997C122.111 97.9991 122.445 97.8653 122.78 97.8653C123.248 97.7984 123.649 98.1329 123.716 98.6011C123.783 98.7348 123.783 98.7348 123.783 98.8017ZM123.449 99.6044V99.203H122.713C122.245 99.203 122.111 99.4037 122.111 99.6044C122.111 99.805 122.312 100.073 122.713 100.073C123.047 100.073 123.315 99.8719 123.449 99.6044Z" fill="#058E3F"/>
<path d="M124.318 100.006L124.452 99.7381C124.72 99.9388 124.987 100.006 125.322 100.006C125.79 100.006 125.924 99.8719 125.924 99.6044C125.924 99.0024 124.385 99.4706 124.385 98.5342C124.385 98.1329 124.72 97.8653 125.322 97.8653C125.589 97.8653 125.924 97.9322 126.191 98.066L126.057 98.3335C125.857 98.1997 125.589 98.1328 125.322 98.1328C124.92 98.1328 124.72 98.2666 124.72 98.5342C124.72 99.203 126.258 98.668 126.258 99.6044C126.258 100.006 125.924 100.273 125.255 100.273C124.92 100.34 124.586 100.206 124.318 100.006Z" fill="#058E3F"/>
<path d="M126.526 100.006L126.659 99.7381C126.927 99.9388 127.194 100.006 127.529 100.006C127.997 100.006 128.198 99.8719 128.198 99.6044C128.198 99.0024 126.659 99.4706 126.659 98.5342C126.659 98.1329 126.994 97.8653 127.596 97.8653C127.863 97.8653 128.198 97.9322 128.398 98.066L128.265 98.3335C128.064 98.1997 127.863 98.1328 127.596 98.1328C127.194 98.1328 126.994 98.2666 126.994 98.5342C126.994 99.203 128.532 98.668 128.532 99.6044C128.532 100.006 128.198 100.273 127.529 100.273C127.194 100.34 126.793 100.206 126.526 100.006Z" fill="#058E3F"/>
<path d="M132.479 97.9322L131.542 100.34H131.275L130.539 98.4004L129.803 100.34H129.469L128.599 97.9322H128.934L129.669 99.9388L130.405 97.9322H130.673L131.408 99.9388L132.144 97.9322H132.479Z" fill="#058E3F"/>
<path d="M132.679 99.1362C132.679 98.4673 133.214 97.9322 133.883 97.9322C134.552 97.9322 135.087 98.4673 135.087 99.1362C135.087 99.805 134.552 100.34 133.883 100.34C133.214 100.34 132.679 99.8719 132.679 99.203C132.679 99.1362 132.679 99.1362 132.679 99.1362ZM134.753 99.1362C134.753 98.6679 134.351 98.2666 133.883 98.2666C133.415 98.2666 133.014 98.6679 133.014 99.1362C133.014 99.6044 133.415 100.006 133.883 100.006C134.351 100.006 134.753 99.6044 134.753 99.1362Z" fill="#058E3F"/>
<path d="M136.96 97.9322V98.1997H136.893C136.492 98.1997 136.09 98.5342 136.09 98.9355C136.09 99.0024 136.09 99.0024 136.09 99.0693V100.273H135.756V97.8653H136.09V98.3335C136.224 98.066 136.559 97.8653 136.96 97.9322Z" fill="#058E3F"/>
<path d="M139.702 96.9289V100.273H139.368V99.805C139.167 100.139 138.833 100.34 138.431 100.273C137.763 100.206 137.294 99.6713 137.294 99.0024C137.361 98.4004 137.829 97.9322 138.431 97.8653C138.766 97.8653 139.167 97.9991 139.368 98.3335V96.9289H139.702ZM139.368 99.0693C139.368 98.6011 138.9 98.1997 138.431 98.2666C137.963 98.2666 137.562 98.7348 137.629 99.203C137.629 99.6713 138.03 100.006 138.498 100.006C138.967 100.006 139.368 99.6044 139.368 99.1362C139.368 99.1362 139.368 99.1362 139.368 99.0693Z" fill="#058E3F"/>
<path d="M144.451 124.286V127.429H144.117V124.553H143.381V124.286H144.451Z" fill="#058E3F"/>
<path d="M147.327 127.162V127.429H145.12V127.162L146.458 125.891C146.792 125.557 146.859 125.356 146.859 125.088C146.859 124.687 146.592 124.486 146.123 124.486C145.789 124.486 145.455 124.62 145.254 124.821L144.986 124.62C145.254 124.286 145.655 124.152 146.123 124.152C146.792 124.152 147.194 124.486 147.194 125.021C147.194 125.423 146.993 125.757 146.659 126.025L145.588 127.095H147.327V127.162Z" fill="#058E3F"/>
<path d="M149.869 126.56C149.869 127.095 149.468 127.496 148.732 127.496C148.331 127.496 147.929 127.362 147.595 127.095L147.729 126.827C147.996 127.095 148.331 127.229 148.732 127.229C149.267 127.229 149.535 126.961 149.535 126.627C149.535 126.292 149.267 126.025 148.665 126.025H148.465V125.757L149.334 124.687H147.729V124.286H149.735V124.553L148.799 125.623C149.535 125.69 149.869 126.025 149.869 126.56Z" fill="#058E3F"/>
<path d="M153.013 126.627H152.411V127.429H152.076V126.627H150.27V126.359L151.943 124.286H152.277L150.672 126.292H152.076V125.557H152.411V126.292H153.013V126.627Z" fill="#058E3F"/>
<path d="M156.625 126.493C156.625 127.028 156.223 127.429 155.488 127.429C155.086 127.429 154.685 127.296 154.351 127.028L154.484 126.76C154.752 127.028 155.086 127.162 155.421 127.162C155.956 127.162 156.223 126.894 156.223 126.493C156.223 126.092 155.956 125.824 155.153 125.824H154.484L154.618 124.219H156.357V124.486H154.886L154.752 125.49H155.153C156.223 125.557 156.625 125.958 156.625 126.493Z" fill="#058E3F"/>
<path d="M159.434 126.493C159.434 127.028 158.966 127.496 158.431 127.496H158.364C157.494 127.496 157.093 126.894 157.093 125.891C157.093 124.888 157.695 124.286 158.564 124.286C158.832 124.286 159.1 124.353 159.3 124.486L159.166 124.754C158.966 124.62 158.765 124.62 158.564 124.62C157.896 124.62 157.427 125.021 157.427 125.891C157.427 125.958 157.427 126.025 157.427 126.159C157.628 125.824 157.962 125.623 158.431 125.623C158.966 125.557 159.434 125.958 159.501 126.426C159.434 126.426 159.434 126.426 159.434 126.493ZM159.1 126.493C159.1 126.092 158.765 125.824 158.297 125.824C157.896 125.757 157.561 126.092 157.494 126.426C157.494 126.426 157.494 126.426 157.494 126.493C157.494 126.827 157.762 127.162 158.297 127.162C158.631 127.229 159.033 126.961 159.033 126.627C159.1 126.56 159.1 126.56 159.1 126.493Z" fill="#058E3F"/>
<path d="M161.976 124.286V124.553L160.638 127.496H160.304L161.641 124.62H160.036V125.222H159.702V124.286H161.976Z" fill="#058E3F"/>
<path d="M164.785 126.56C164.785 127.095 164.317 127.496 163.581 127.496C162.845 127.496 162.377 127.162 162.377 126.56C162.377 126.159 162.645 125.891 162.979 125.757C162.711 125.69 162.444 125.423 162.511 125.088C162.511 124.553 162.912 124.286 163.581 124.286C164.25 124.286 164.718 124.62 164.718 125.088C164.718 125.423 164.517 125.69 164.183 125.757C164.517 125.891 164.785 126.159 164.785 126.56ZM164.45 126.56C164.45 126.159 164.116 125.958 163.581 125.958C163.046 125.958 162.711 126.225 162.711 126.56C162.711 126.894 163.046 127.229 163.581 127.229C164.116 127.229 164.45 126.961 164.45 126.56ZM163.514 125.69C163.982 125.69 164.317 125.49 164.317 125.088C164.317 124.687 163.982 124.486 163.514 124.486C163.046 124.486 162.711 124.687 162.711 125.088C162.711 125.49 163.046 125.69 163.514 125.69Z" fill="#058E3F"/>
<path d="M168.664 125.824C168.664 126.894 168.062 127.429 167.193 127.429C166.925 127.429 166.658 127.362 166.457 127.229L166.591 126.961C166.792 127.095 166.992 127.095 167.193 127.095C167.862 127.095 168.33 126.627 168.33 125.824C168.33 125.757 168.33 125.623 168.33 125.557C168.129 125.891 167.795 126.158 167.394 126.092C166.858 126.158 166.39 125.757 166.323 125.222V125.155C166.323 124.62 166.792 124.152 167.327 124.152H167.394C168.196 124.219 168.664 124.821 168.664 125.824ZM168.196 125.222C168.196 124.888 167.929 124.553 167.394 124.553C167.059 124.486 166.658 124.754 166.658 125.088C166.658 125.155 166.658 125.155 166.658 125.222C166.658 125.623 166.992 125.891 167.46 125.891C167.795 125.891 168.129 125.623 168.196 125.222Z" fill="#058E3F"/>
<path d="M170.002 124.286V127.429H169.668V124.553H168.932V124.286H170.002Z" fill="#058E3F"/>
<path d="M170.738 125.891C170.738 124.888 171.273 124.286 172.009 124.286C172.744 124.286 173.28 124.888 173.28 125.891C173.28 126.894 172.744 127.496 172.009 127.496C171.273 127.496 170.738 126.894 170.738 125.891ZM172.945 125.891C172.945 125.021 172.544 124.553 172.009 124.553C171.474 124.553 171.072 125.021 171.072 125.891C171.072 126.76 171.474 127.229 172.009 127.229C172.544 127.229 172.945 126.694 172.945 125.891Z" fill="#058E3F"/>
<path d="M174.617 124.286V127.429H174.283V124.553H173.547V124.286H174.617Z" fill="#058E3F"/>
<path d="M177.427 124.286V127.429H177.092V124.553H176.356V124.286H177.427Z" fill="#058E3F"/>
<path d="M179.032 124.286V127.429H178.697V124.553H177.962V124.286H179.032Z" fill="#058E3F"/>
<path d="M181.975 127.162V127.429H179.768V127.162L181.105 125.891C181.44 125.557 181.507 125.356 181.507 125.088C181.507 124.687 181.239 124.486 180.771 124.486C180.436 124.486 180.102 124.62 179.901 124.821L179.634 124.62C179.901 124.286 180.303 124.152 180.771 124.152C181.44 124.152 181.841 124.486 181.841 125.021C181.841 125.423 181.64 125.757 181.306 126.025L180.236 127.095H181.975V127.162Z" fill="#058E3F"/>
<path d="M183.246 124.286V127.429H182.911V124.553H182.176V124.286H183.246Z" fill="#058E3F"/>
<path d="M129.937 123.55V123.082C129.937 122.613 129.536 122.212 129.067 122.212H120.506C120.038 122.212 119.636 122.613 119.636 123.082V123.55H129.937Z" fill="#058E3F"/>
<path d="M119.703 124.219V127.764C119.703 128.232 120.104 128.633 120.573 128.633H129.134C129.602 128.633 130.004 128.232 130.004 127.764V124.219H119.703Z" fill="#058E3F"/>
<path d="M119.837 142.88C119.837 141.877 120.372 141.275 121.108 141.275C121.843 141.275 122.379 141.877 122.379 142.88C122.379 143.884 121.843 144.486 121.108 144.486C120.372 144.486 119.837 143.884 119.837 142.88ZM122.044 142.88C122.044 142.011 121.643 141.543 121.108 141.543C120.573 141.543 120.171 142.011 120.171 142.88C120.171 143.75 120.573 144.218 121.108 144.218C121.643 144.218 122.044 143.75 122.044 142.88Z" fill="#058E3F"/>
<path d="M125.255 143.616C125.255 144.151 124.787 144.552 124.051 144.552C123.315 144.552 122.847 144.218 122.847 143.616C122.847 143.215 123.114 142.947 123.449 142.813C123.181 142.746 122.981 142.479 122.981 142.144C122.981 141.609 123.382 141.342 124.051 141.342C124.72 141.342 125.188 141.676 125.188 142.144C125.188 142.479 124.987 142.746 124.653 142.813C124.987 142.88 125.255 143.215 125.255 143.616ZM124.92 143.616C124.92 143.215 124.586 143.014 124.051 143.014C123.516 143.014 123.181 143.282 123.181 143.616C123.181 143.95 123.516 144.285 124.051 144.285C124.586 144.285 124.92 143.95 124.92 143.616ZM124.051 142.68C124.519 142.68 124.853 142.479 124.853 142.144C124.853 141.81 124.519 141.543 124.051 141.543C123.583 141.543 123.248 141.743 123.248 142.144C123.248 142.546 123.516 142.68 124.051 142.68Z" fill="#058E3F"/>
<path d="M126.86 140.673H127.128L125.656 144.954H125.389L126.86 140.673Z" fill="#058E3F"/>
<path d="M129.402 144.151V144.419H127.194V144.151L128.532 142.88C128.867 142.546 128.934 142.278 128.934 142.078C128.934 141.676 128.666 141.476 128.198 141.476C127.863 141.476 127.529 141.609 127.328 141.81L127.128 141.609C127.395 141.275 127.796 141.141 128.265 141.141C128.934 141.141 129.335 141.476 129.335 142.011C129.335 142.412 129.134 142.746 128.8 143.014L127.73 144.084H129.402V144.151Z" fill="#058E3F"/>
<path d="M131.943 143.549C131.943 144.084 131.542 144.486 130.806 144.486C130.405 144.486 130.004 144.352 129.669 144.084L129.803 143.817C130.071 144.084 130.405 144.218 130.739 144.218C131.275 144.218 131.542 143.95 131.542 143.549C131.542 143.148 131.275 142.88 130.472 142.88H129.803L129.937 141.275H131.676V141.543H130.204L130.071 142.546H130.472C131.542 142.613 131.943 142.947 131.943 143.549Z" fill="#058E3F"/>
<path d="M121.308 139.268V139.469H119.904V137.529H121.242V137.73H120.104V138.399H121.108V138.599H120.104V139.335L121.308 139.268Z" fill="#058E3F"/>
<path d="M122.981 139.469L122.379 138.599L121.71 139.469H121.442L122.178 138.466L121.509 137.529H121.777L122.379 138.332L122.981 137.529H123.181L122.512 138.466L123.248 139.469H122.981Z" fill="#058E3F"/>
<path d="M125.121 138.131C125.121 138.533 124.787 138.8 124.318 138.8H123.783V139.402H123.583V137.462H124.318C124.787 137.462 125.121 137.73 125.121 138.131ZM124.853 138.131C124.853 137.797 124.653 137.663 124.251 137.663H123.716V138.666H124.251C124.653 138.666 124.853 138.466 124.853 138.131Z" fill="#058E3F"/>
<path d="M126.325 137.462H127.128C127.663 137.462 128.131 137.931 128.131 138.466C128.131 139.001 127.663 139.469 127.128 139.469H126.325V137.462ZM127.061 139.268C127.529 139.268 127.863 138.934 127.863 138.466C127.863 137.997 127.529 137.663 127.061 137.663H126.459V139.268H127.061Z" fill="#058E3F"/>
<path d="M129.669 138.533V139.469H129.469V139.201C129.335 139.402 129.134 139.469 128.934 139.469C128.599 139.469 128.398 139.268 128.398 139.068C128.398 138.867 128.532 138.666 129 138.666H129.469V138.599C129.469 138.399 129.335 138.198 129.134 138.198H129.067C128.867 138.198 128.733 138.265 128.599 138.399L128.532 138.265C128.733 138.131 128.934 138.064 129.134 138.064C129.402 137.998 129.669 138.198 129.736 138.533C129.669 138.466 129.669 138.466 129.669 138.533ZM129.469 139.001V138.733H129C128.733 138.733 128.599 138.867 128.599 139.001C128.599 139.135 128.733 139.268 129 139.268C129.201 139.335 129.402 139.201 129.469 139.001Z" fill="#058E3F"/>
<path d="M131.007 139.335C130.94 139.402 130.806 139.469 130.673 139.469C130.472 139.469 130.271 139.335 130.271 139.135V139.068V138.198H130.004V138.064H130.271V137.663H130.472V137.997H130.94V138.131H130.472V139.001C130.472 139.135 130.539 139.268 130.673 139.268H130.739C130.806 139.268 130.873 139.268 130.94 139.201L131.007 139.335Z" fill="#058E3F"/>
<path d="M132.612 138.733H131.408C131.408 139.001 131.676 139.268 132.01 139.268C132.211 139.268 132.345 139.201 132.479 139.068L132.612 139.201C132.479 139.335 132.278 139.469 132.01 139.469C131.609 139.469 131.275 139.201 131.275 138.8V138.733C131.275 138.332 131.542 137.997 131.943 137.997C131.943 137.997 131.943 137.997 132.01 137.997C132.412 137.997 132.679 138.265 132.746 138.599C132.746 138.666 132.746 138.666 132.746 138.733H132.612ZM131.341 138.599H132.412C132.412 138.332 132.144 138.131 131.81 138.131C131.609 138.198 131.408 138.399 131.341 138.599Z" fill="#058E3F"/>
<path d="M157.16 141.275V144.419H156.825V141.543H156.09V141.275H157.16Z" fill="#058E3F"/>
<path d="M160.103 144.151V144.419H157.896V144.151L159.233 142.88C159.568 142.546 159.635 142.278 159.635 142.078C159.635 141.676 159.367 141.476 158.899 141.476C158.564 141.476 158.23 141.609 158.029 141.81L157.762 141.609C158.029 141.275 158.431 141.141 158.899 141.141C159.568 141.141 159.969 141.476 159.969 142.011C159.969 142.412 159.768 142.746 159.434 143.014L158.364 144.084H160.103V144.151Z" fill="#058E3F"/>
<path d="M162.578 143.549C162.578 144.084 162.176 144.486 161.441 144.486C161.039 144.486 160.638 144.352 160.304 144.084L160.437 143.817C160.705 144.084 161.039 144.218 161.441 144.218C161.976 144.218 162.243 143.95 162.243 143.616C162.243 143.282 161.976 143.014 161.374 143.014H161.173V142.746L162.043 141.676H160.437V141.409H162.444V141.609L161.574 142.746C162.243 142.68 162.578 143.081 162.578 143.549Z" fill="#058E3F"/>
<path d="M156.223 138.466C156.223 137.931 156.625 137.462 157.227 137.462H157.294C157.561 137.462 157.829 137.529 158.029 137.73L157.896 137.864C157.762 137.73 157.561 137.596 157.294 137.596C156.825 137.529 156.424 137.864 156.424 138.332C156.424 138.8 156.692 139.201 157.16 139.201C157.227 139.201 157.227 139.201 157.294 139.201C157.494 139.201 157.695 139.135 157.896 138.934L158.029 139.068C157.829 139.268 157.561 139.335 157.294 139.335C156.692 139.469 156.223 139.068 156.223 138.466Z" fill="#058E3F"/>
<path d="M161.106 137.462L160.437 139.402H160.237L159.635 137.73L159.033 139.402H158.832L158.163 137.462H158.364L158.966 139.135L159.568 137.462H159.768L160.37 139.135L160.972 137.462H161.106Z" fill="#058E3F"/>
<path d="M166.256 197.059H138.498C134.886 197.059 132.01 194.183 132.01 190.571C132.01 186.959 134.886 184.083 138.498 184.083H166.256C169.868 184.083 172.744 186.959 172.744 190.571C172.811 194.116 169.868 197.059 166.256 197.059Z" fill="#058E3F"/>
<path d="M110.473 176.591C111.476 191.975 104.319 209.165 104.319 209.165L65.7253 198.33L58.9697 196.457C65.6584 187.159 68.869 168.899 67.1299 154.05C66.9962 152.913 66.9293 151.91 66.8624 150.907C66.1935 138.666 71.2769 135.121 75.5577 129.704C80.2398 123.884 90.6742 101.812 90.6742 96.5276C90.6742 91.2435 103.784 78.535 100.841 64.0205C100.841 64.0205 104.787 61.5457 108.801 63.5523C110.606 64.4887 112.412 66.2946 113.884 69.639C117.295 77.5985 112.479 100.073 108.466 105.557L100.64 137.998C100.64 137.998 103.249 142.546 105.858 150.84C108.332 159.268 109.938 167.896 110.473 176.591Z" fill="white"/>
<path opacity="0.4" d="M66.8624 150.907C69.0697 156.927 71.3438 160.94 71.1432 169.301C70.9425 177.661 66.4611 190.571 67.7319 197.326C66.9962 197.527 66.3273 197.928 65.7253 198.396L58.9697 196.524C65.6584 187.226 68.869 168.966 67.1299 154.117C66.9962 152.913 66.9293 151.843 66.8624 150.907Z" fill="#9FFFB3"/>
<path opacity="0.4" d="M108.399 105.624L100.573 138.064C100.573 138.064 103.182 142.613 105.791 150.907C100.507 142.345 95.9582 139.803 95.9582 139.803C99.5032 135.59 102.246 104.621 102.246 104.621C102.246 104.621 113.349 91.6448 112.279 77.9999C111.944 73.0502 110.74 68.1675 108.801 63.6192C110.606 64.5556 112.412 66.3615 113.884 69.7728C117.228 77.6654 112.412 100.139 108.399 105.624Z" fill="#9FFFB3"/>
<path d="M104.319 209.567C104.252 209.567 104.252 209.567 104.185 209.567C103.985 209.5 103.918 209.299 103.985 209.098C104.052 208.898 111.075 191.842 110.071 176.658C108.533 152.913 100.306 138.399 100.172 138.265C100.105 138.198 100.105 138.131 100.105 137.997L107.931 105.557C107.931 105.49 107.931 105.49 107.998 105.424C112.078 99.8719 116.693 77.4648 113.416 69.7728C111.944 66.2946 109.938 64.1543 107.463 63.4185C104.587 62.4821 101.844 63.7529 101.109 64.1543C102.914 73.786 97.898 82.5482 94.2861 88.9024C92.4132 92.1799 90.9417 94.7885 90.9417 96.4607C90.9417 101.745 80.5742 123.751 75.7584 129.837C75.0895 130.64 74.4206 131.443 73.8186 132.178C69.8054 136.86 65.926 141.342 67.4644 153.917C69.2703 169.234 65.7253 187.561 59.2373 196.524C59.1035 196.657 58.9029 196.724 58.7691 196.59C58.6353 196.457 58.5684 196.256 58.7022 196.122C65.0565 187.226 68.5346 169.1 66.7955 153.983C65.2571 141.074 69.2034 136.526 73.3504 131.71C74.0193 130.974 74.6882 130.172 75.2902 129.369C79.9723 123.483 90.3397 101.544 90.3397 96.4607C90.3397 94.5878 91.8781 91.9124 93.8179 88.568C97.4298 82.2138 102.446 73.4516 100.573 64.0205C100.573 63.8867 100.573 63.7529 100.707 63.6861C100.841 63.6192 104.118 61.6126 107.797 62.7496C110.473 63.6192 112.613 65.8933 114.152 69.5052C117.563 77.5317 112.948 99.8719 108.734 105.758L100.975 137.997C101.777 139.469 109.403 153.783 110.874 176.591C111.877 191.908 104.787 209.165 104.72 209.366C104.587 209.5 104.453 209.567 104.319 209.567Z" fill="#058E3F"/>
<path d="M98.7006 235.853C98.5668 235.853 98.4999 235.786 98.433 235.719C93.4165 227.359 84.7212 221.941 84.6543 221.874C84.5206 221.807 84.4537 221.539 84.5206 221.406C84.5874 221.272 84.855 221.205 84.9888 221.272C85.0557 221.339 93.8847 226.823 99.035 235.318C99.1019 235.452 99.1019 235.653 98.9013 235.786C98.8344 235.786 98.7675 235.853 98.7006 235.853Z" fill="#058E3F"/>
<path d="M108.6 232.174C106.393 232.174 100.306 231.506 94.7543 224.884C93.4165 223.278 91.1424 221.941 88.5338 220.335C82.9822 216.991 76.0928 212.911 73.9524 203.413C73.8855 203.212 74.0193 203.079 74.22 203.012C74.4206 202.945 74.5544 203.079 74.6213 203.279C76.6948 212.443 83.4504 216.523 88.8682 219.733C91.5437 221.339 93.8179 222.676 95.2894 224.415C101.911 232.375 109.336 231.439 109.403 231.372C109.603 231.372 109.737 231.506 109.804 231.639C109.804 231.84 109.67 231.974 109.536 232.041C109.469 232.107 109.202 232.174 108.6 232.174Z" fill="#058E3F"/>
<path opacity="0.2" d="M219.432 272.307C200.034 263.009 211.807 255.585 185.185 244.147C158.564 232.71 158.297 222.81 161.508 200.202C164.718 177.595 162.176 153.582 169.935 151.509C177.694 149.435 163.849 118.333 172.878 107.296L217.291 193.714L219.432 272.307Z" fill="black" fill-opacity="0.7"/>
<path d="M291.603 271.37C290.666 268.762 289.797 265.952 289.061 263.344C288.125 259.999 287.389 257.324 285.717 254.247C285.449 253.779 285.182 253.244 284.847 252.642C283.041 249.431 280.566 245.017 279.095 239.532C278.092 235.853 279.095 226.89 280.031 218.128C280.7 211.841 281.302 205.955 281.101 202.61L281.035 201.406C280.566 192.644 279.63 174.317 277.69 169.301C275.751 164.418 274.011 163.682 270.734 162.411C270.4 162.278 270.065 162.144 269.664 161.943C268.46 161.408 266.386 160.338 263.978 159.134C258.627 156.325 251.872 152.846 248.461 152.445C245.25 152.111 242.039 152.244 238.896 152.913C234.682 149.703 227.592 145.556 225.451 145.489C223.712 145.422 219.9 146.492 218.094 147.094L217.157 147.362C216.02 146.492 214.816 145.69 213.479 144.954C213.412 144.887 213.278 144.887 213.211 144.82C210.87 143.884 207.258 143.817 205.318 143.884C204.717 143.884 204.248 143.95 204.048 143.95C200.369 138.332 196.757 132.647 195.219 130.172C191.941 124.955 181.774 103.618 181.707 103.417C181.707 103.35 181.641 103.35 181.574 103.283H181.507C180.704 103.083 174.885 101.544 172.544 107.23C170.002 113.383 173.614 126.827 177.226 131.71C178.965 134.051 183.58 143.683 188.329 153.582C187.125 154.719 177.36 163.682 172.611 165.354C168.731 166.692 169.668 186.557 170.403 202.543C170.671 208.43 170.939 213.513 170.805 216.523C170.671 222.409 181.373 230.502 191.74 238.328C201.105 245.418 210.803 252.776 211.94 258.127C212.275 259.598 213.144 260.869 214.214 262.207C216.02 264.481 218.295 267.156 219.298 272.24C219.565 273.778 222.04 275.785 223.98 278.995H294.211C293.81 277.524 292.673 274.648 291.603 271.37ZM194.148 165.622C197.56 172.779 199.633 176.993 200.168 177.461C200.703 177.929 200.636 180.203 200.636 182.41C200.57 184.35 200.636 186.29 200.837 188.163C200.034 188.899 194.75 193.648 193.747 197.527L189.333 192.31L188.195 175.856C188.797 175.187 193.346 170.304 194.148 165.622Z" fill="white"/>
<path opacity="0.4" d="M271.403 211.439C273.075 226.823 273.075 235.184 274.948 239.666C278.092 247.224 282.707 248.695 282.707 248.695C281.168 245.752 279.964 242.676 279.095 239.532C278.092 235.853 279.095 226.89 280.031 218.128C280.7 211.841 281.302 205.955 281.168 202.543L281.101 201.34C280.633 192.577 279.697 174.317 277.757 169.234C275.884 164.351 274.078 163.615 270.801 162.344C270.466 162.211 270.132 162.077 269.731 161.943C268.527 161.408 266.453 160.338 264.045 159.134C258.694 156.325 251.939 152.846 248.527 152.445C245.317 152.111 242.106 152.244 238.963 152.913C234.749 149.703 227.659 145.556 225.518 145.489C223.779 145.422 219.097 146.76 217.224 147.362C225.251 153.917 236.822 162.077 236.822 162.077C245.986 163.883 244.782 167.829 248.527 170.103C251.872 172.11 255.082 166.224 257.892 165.756C261.57 165.087 265.784 168.966 265.584 173.715C264.982 186.624 269.998 198.196 271.403 211.439Z" fill="#9FFFB3"/>
<path opacity="0.4" d="M225.184 163.682C225.184 163.682 217.96 157.662 214.482 155.656C211.004 153.649 210.469 146.76 213.211 145.021C213.345 144.954 213.412 144.954 213.546 144.887L213.278 144.753C210.937 143.817 207.325 143.75 205.385 143.817C209.399 151.308 212.609 156.993 213.479 158.264C216.422 162.545 225.184 163.682 225.184 163.682Z" fill="#9FFFB3"/>
<path opacity="0.4" d="M214.214 257.257C214.549 255.652 211.873 250.97 210.736 249.097C208.128 244.749 177.56 217.794 181.975 210.57C186.389 203.346 190.403 208.697 193.212 209.165C195.219 209.5 200.703 206.222 200.703 205.955C200.101 200.403 205.185 196.791 205.185 196.791C205.185 196.791 204.717 174.718 203.513 175.12C202.309 175.521 188.262 141.944 188.262 141.944C188.262 141.944 173.347 122.145 174.216 112.915C175.086 103.684 181.507 103.551 181.507 103.551V103.283C180.704 103.083 174.885 101.544 172.544 107.23C170.002 113.383 173.614 126.827 177.226 131.71C178.965 134.051 183.58 143.683 188.329 153.582C187.125 154.719 177.36 163.682 172.611 165.354C168.731 166.692 169.668 186.557 170.403 202.543C170.671 208.43 170.939 213.513 170.805 216.523C170.671 222.409 181.373 230.502 191.74 238.328C201.105 245.418 210.803 252.776 211.94 258.127C212.275 259.598 213.144 260.869 214.214 262.207C214.148 260.601 214.081 258.929 214.214 257.257ZM194.148 165.622C197.56 172.779 199.633 176.993 200.168 177.461C200.703 177.929 200.636 180.203 200.636 182.41C200.57 184.35 200.636 186.29 200.837 188.163C200.034 188.899 194.75 193.648 193.747 197.527L189.333 192.31L188.195 175.856C188.797 175.187 193.346 170.304 194.148 165.622Z" fill="#9FFFB3"/>
<path d="M202.442 191.975C202.375 191.975 202.309 191.975 202.242 191.908C200.503 190.303 200.503 186.156 200.57 182.477C200.57 180.27 200.636 178.063 200.168 177.595C199.499 176.993 196.556 170.772 191.339 159.87C185.721 148.031 179.366 134.653 177.293 131.844C173.748 126.961 170.069 113.45 172.611 107.296C175.152 101.21 181.707 103.35 181.774 103.35C181.841 103.35 181.908 103.417 181.975 103.551C182.109 103.751 192.209 125.088 195.486 130.306C198.697 135.456 210.803 154.184 213.88 158.264C215.753 160.739 218.295 162.478 221.238 163.415C221.438 163.481 221.505 163.682 221.438 163.816C221.371 164.017 221.171 164.083 221.037 164.017C217.96 163.08 215.285 161.207 213.345 158.599C210.268 154.452 198.162 135.723 194.951 130.573C191.807 125.557 182.309 105.758 181.44 103.885C180.503 103.618 175.353 102.414 173.28 107.497C170.939 113.049 174.015 126.092 177.895 131.443C179.968 134.319 186.389 147.763 192.008 159.602C195.954 167.963 200.101 176.591 200.703 177.126C201.372 177.728 201.372 179.467 201.372 182.477C201.372 185.822 201.305 190.036 202.844 191.44C202.977 191.574 202.977 191.775 202.844 191.908C202.576 191.908 202.509 191.975 202.442 191.975Z" fill="#058E3F"/>
<path d="M193.814 198.396C193.747 198.396 193.613 198.33 193.546 198.263L188.731 192.577C188.664 192.51 188.664 192.444 188.664 192.377L187.527 175.789C187.527 175.722 187.527 175.588 187.593 175.521C187.66 175.454 193.346 169.702 193.613 164.752C193.613 164.552 193.747 164.418 193.948 164.418C194.148 164.418 194.282 164.619 194.282 164.752C193.948 169.635 188.998 174.986 188.129 175.856L189.266 192.176L193.613 197.259C194.884 193.179 200.57 188.163 200.837 187.962C200.971 187.828 201.172 187.828 201.305 187.962C201.439 188.096 201.439 188.297 201.305 188.43C201.238 188.497 194.884 194.049 194.148 197.995C194.148 198.129 194.015 198.196 193.881 198.263C193.881 198.396 193.814 198.396 193.814 198.396Z" fill="#058E3F"/>
<path d="M219.565 272.44C219.432 272.44 219.298 272.374 219.231 272.173C217.893 267.357 216.02 264.949 214.549 263.009C213.345 261.471 212.342 260.133 211.94 258.127C210.803 252.843 201.105 245.485 191.74 238.395C180.905 230.168 170.604 222.409 170.738 216.456C170.805 213.446 170.604 208.363 170.337 202.477C169.467 182.879 168.999 166.491 172.611 165.221C177.627 163.481 188.262 153.382 188.396 153.315C188.53 153.181 188.731 153.181 188.864 153.315C188.998 153.448 188.998 153.649 188.864 153.783C188.396 154.184 177.962 164.017 172.878 165.823C169.4 167.026 170.404 188.297 171.005 202.41C171.273 208.296 171.541 213.379 171.407 216.456C171.273 222.008 181.908 230.034 192.142 237.793C202.041 245.284 211.405 252.374 212.542 257.926C212.944 259.799 213.88 261.003 215.017 262.541C216.556 264.548 218.428 267.023 219.766 271.905C219.833 272.106 219.699 272.24 219.565 272.307C219.632 272.44 219.632 272.44 219.565 272.44Z" fill="#058E3F"/>
<path d="M242.173 165.889C242.039 165.889 241.906 165.823 241.839 165.689C241.304 164.351 239.297 163.481 237.157 162.612C235.685 162.01 234.214 161.341 232.876 160.472C231.672 159.669 229.197 157.662 226.321 155.388C221.304 151.308 215.017 146.292 212.944 145.422C209.733 144.084 203.981 144.619 203.914 144.619C203.713 144.619 203.579 144.486 203.579 144.285C203.579 144.084 203.713 143.95 203.914 143.95C204.181 143.95 209.934 143.415 213.211 144.82C215.352 145.69 221.706 150.773 226.722 154.853C229.598 157.127 232.073 159.134 233.21 159.936C234.414 160.806 235.953 161.408 237.357 162.01C239.632 163.013 241.772 163.883 242.374 165.488C242.441 165.689 242.374 165.823 242.173 165.889C242.24 165.889 242.24 165.889 242.173 165.889Z" fill="#058E3F"/>
<path d="M250.4 160.806C250.333 160.806 250.333 160.806 250.267 160.806C246.521 159.334 243.043 157.261 240.033 154.585C236.153 151.174 227.525 146.158 225.385 146.024C223.177 145.89 217.224 147.897 217.158 147.897C216.957 147.964 216.823 147.83 216.756 147.696C216.689 147.495 216.823 147.362 216.957 147.295C217.224 147.228 223.044 145.288 225.385 145.355C227.926 145.489 236.622 150.706 240.434 154.05C243.377 156.659 246.722 158.732 250.467 160.137C250.668 160.204 250.735 160.405 250.668 160.538C250.668 160.672 250.534 160.806 250.4 160.806Z" fill="#058E3F"/>
<path d="M285.449 254.648C285.315 254.648 285.248 254.582 285.182 254.448C284.914 253.98 284.646 253.444 284.312 252.909C282.506 249.632 279.964 245.15 278.493 239.666C277.49 235.92 278.426 226.823 279.362 218.061C280.031 211.841 280.633 205.888 280.499 202.61L280.433 201.34C279.964 192.644 279.028 174.451 277.088 169.501C275.282 164.886 273.677 164.217 270.466 162.946C270.132 162.813 269.798 162.679 269.396 162.545C268.125 162.01 266.052 160.94 263.644 159.669C258.561 157.06 251.671 153.448 248.394 152.98C245.25 152.646 242.039 152.78 238.963 153.448C238.762 153.515 238.628 153.382 238.561 153.181C238.494 152.98 238.628 152.846 238.829 152.78C242.039 152.111 245.25 151.91 248.528 152.311C251.939 152.78 258.627 156.258 264.045 159.067C266.453 160.338 268.527 161.408 269.731 161.876C270.065 162.01 270.466 162.144 270.801 162.277C274.078 163.615 275.884 164.351 277.824 169.234C279.831 174.317 280.767 192.51 281.168 201.273L281.235 202.543C281.436 205.888 280.767 211.841 280.098 218.128C279.162 226.823 278.225 235.853 279.229 239.465C280.7 244.883 283.175 249.297 284.981 252.575C285.315 253.11 285.583 253.645 285.85 254.113C285.917 254.247 285.85 254.448 285.717 254.582C285.583 254.648 285.516 254.648 285.449 254.648Z" fill="#058E3F"/>
<path d="M187.861 176.123C187.727 176.123 187.593 175.989 187.527 175.856C187.192 174.384 186.323 171.976 185.453 171.709C185.252 171.642 185.186 171.441 185.252 171.307C185.319 171.107 185.52 171.04 185.654 171.107C187.125 171.642 188.062 175.32 188.129 175.789C188.195 175.989 188.062 176.123 187.861 176.19C187.928 176.123 187.861 176.123 187.861 176.123Z" fill="#058E3F"/>
<path d="M190.269 205.286C190.202 205.286 190.202 205.286 190.135 205.286C189.934 205.219 189.868 205.018 189.935 204.818C189.935 204.818 191.339 201.473 190.47 199.266C189.667 197.059 189.065 194.785 188.597 192.51C188.53 192.31 188.664 192.176 188.864 192.109C189.065 192.042 189.199 192.176 189.266 192.377C189.734 194.651 190.336 196.858 191.072 199.065C192.075 201.54 190.603 204.951 190.536 205.152C190.536 205.152 190.403 205.286 190.269 205.286Z" fill="#058E3F"/>
<path d="M198.162 206.088C197.961 206.088 197.76 206.022 197.493 205.888C196.021 205.085 193.346 201.406 193.479 198.062C193.479 197.861 193.613 197.728 193.814 197.728C194.015 197.728 194.148 197.861 194.148 198.062C194.015 201.005 196.356 204.216 197.626 205.152C198.028 205.42 198.162 205.42 198.162 205.42C198.295 205.286 198.496 205.353 198.63 205.486C198.764 205.62 198.697 205.821 198.563 205.955C198.429 206.022 198.295 206.088 198.162 206.088Z" fill="#058E3F"/>
<path d="M213.077 176.123C213.011 176.123 212.944 176.123 212.877 176.056C212.743 175.989 212.676 175.722 212.743 175.588C212.944 175.32 216.957 168.899 220.97 168.565C223.177 168.364 225.518 169.969 227.592 171.307C229.197 172.377 230.736 173.448 231.739 173.247C232.675 173.046 233.745 172.311 235.016 171.508C236.822 170.304 238.829 168.966 241.237 168.565C243.712 168.164 245.451 168.699 247.056 169.234C248.126 169.568 249.196 169.903 250.4 169.969C251.805 170.036 252.674 169.1 253.544 168.03C254.547 166.893 255.618 165.622 257.691 165.287C260.233 164.886 261.704 165.622 263.176 166.291C263.912 166.625 264.647 166.96 265.517 167.16C267.055 167.428 267.791 166.759 268.794 165.889C269.329 165.421 269.864 164.886 270.6 164.485C270.734 164.418 270.935 164.485 271.068 164.619C271.135 164.752 271.068 164.953 270.935 165.087C270.266 165.488 269.731 165.889 269.262 166.358C268.259 167.294 267.323 168.164 265.45 167.762C264.513 167.562 263.711 167.227 262.975 166.826C261.57 166.157 260.233 165.555 257.892 165.889C256.086 166.157 255.149 167.294 254.213 168.364C253.276 169.501 252.273 170.638 250.467 170.571C249.129 170.505 247.992 170.17 246.922 169.769C245.384 169.234 243.712 168.699 241.371 169.1C239.096 169.434 237.157 170.772 235.418 171.909C234.147 172.779 233.01 173.515 231.94 173.782C230.669 174.05 229.13 172.979 227.324 171.775C225.385 170.438 223.11 168.966 221.104 169.1C217.425 169.434 213.479 175.789 213.412 175.856C213.278 176.056 213.144 176.123 213.077 176.123Z" fill="#058E3F"/>
<path d="M178.764 54.6564H127.261V64.6894H178.764V54.6564Z" fill="#058E3F"/>
<path d="M8.67072 108.032C8.13562 107.965 7.39986 107.698 6.73099 107.096C5.86146 106.36 5.39325 105.357 5.39325 104.287C5.39325 103.484 5.6608 102.614 6.26278 101.812L5.59391 101.21L6.06212 100.675L6.66411 101.21C6.73099 101.143 6.73099 101.076 6.79788 101.076C6.93165 100.875 7.06543 100.742 7.26609 100.608L6.66411 100.073L6.99854 99.5375L7.66741 100.14C8.47005 99.5375 9.2727 99.2031 10.0753 99.1362C11.0786 99.0693 12.082 99.3369 12.9515 100.073C13.5535 100.608 13.8879 101.21 14.0886 101.611L13.2859 102.146C13.1521 101.745 12.8177 101.21 12.3495 100.808C11.7475 100.34 11.1455 100.073 10.4767 100.14C9.87468 100.14 9.2727 100.474 8.67072 100.942L11.6137 103.551L11.1455 104.086L8.13562 101.41C8.00185 101.544 7.86807 101.678 7.7343 101.812C7.66741 101.879 7.60052 101.945 7.60052 102.012L10.6773 104.688L10.2091 105.223L7.1992 102.614C6.73099 103.283 6.53033 103.952 6.53033 104.487C6.53033 105.223 6.93165 105.892 7.46675 106.427C8.00185 106.895 8.67071 107.163 9.07204 107.23L8.67072 108.032Z" fill="#058E3F"/>
<path d="M246.186 123.015C246.12 123.349 245.852 123.751 245.451 124.152C244.916 124.62 244.247 124.821 243.645 124.687C243.177 124.62 242.708 124.353 242.24 123.951L241.772 124.286L241.504 123.951L241.906 123.617L241.839 123.55C241.772 123.416 241.705 123.349 241.571 123.216L241.17 123.55L240.902 123.216L241.304 122.881C240.969 122.346 240.836 121.811 240.902 121.343C240.969 120.741 241.17 120.139 241.705 119.671C242.106 119.336 242.508 119.202 242.775 119.135L243.043 119.671C242.775 119.737 242.441 119.871 242.173 120.139C241.839 120.406 241.638 120.808 241.638 121.209C241.571 121.543 241.705 121.945 241.973 122.346L243.779 120.808L244.046 121.142L242.173 122.747C242.24 122.814 242.307 122.948 242.374 123.015C242.374 123.082 242.441 123.082 242.441 123.149L244.314 121.543L244.581 121.878L242.708 123.483C243.11 123.818 243.444 124.018 243.779 124.018C244.247 124.085 244.648 123.884 245.049 123.617C245.384 123.349 245.584 122.948 245.651 122.747L246.186 123.015Z" fill="#058E3F"/>
<path d="M63.4512 28.7042V28.3698C63.9194 28.1022 64.2538 27.7009 64.2538 27.1658C64.2538 26.9652 64.2538 26.8314 64.1869 26.6976H63.4512V26.2294H64.1201C64.0532 26.0287 64.0532 25.7612 64.0532 25.4936C64.0532 24.691 64.6552 24.1559 65.3909 24.1559C65.7253 24.1559 65.9929 24.2228 66.1267 24.3566L65.9929 24.8248C65.8591 24.7579 65.6585 24.691 65.3909 24.691C64.8558 24.691 64.5883 25.0923 64.5883 25.5605C64.5883 25.895 64.6551 26.0956 64.6551 26.2963H65.6585V26.6307H64.722C64.722 26.8983 64.7889 27.1658 64.722 27.4334C64.6552 27.7678 64.4545 27.9685 64.2538 28.1691H66.3273V28.7042H63.4512Z" fill="#058E3F"/>
<path d="M126.994 252.107L127.395 251.438C128.599 251.505 129.736 250.97 130.271 249.899C130.472 249.565 130.606 249.297 130.74 248.896L129.335 248.094L129.803 247.224L131.074 247.96C131.208 247.492 131.475 246.956 131.743 246.421C132.612 244.816 134.351 244.415 135.823 245.217C136.559 245.619 136.96 246.02 137.094 246.421L136.291 247.157C136.09 246.89 135.823 246.555 135.221 246.221C134.151 245.619 133.281 246.087 132.746 247.09C132.412 247.692 132.278 248.16 132.077 248.629L134.017 249.699L133.549 250.568L131.676 249.498C131.408 250.033 131.141 250.568 130.74 250.97C130.271 251.505 129.669 251.772 129 251.906L133.081 254.18L132.545 255.184L126.994 252.107Z" fill="#058E3F"/>
<path d="M12.8177 145.623L12.3495 145.154C12.4833 145.021 15.3594 141.944 20.1753 143.215C24.8574 144.419 28.6699 144.285 32.9507 142.68L33.8202 142.345C37.6997 140.874 39.6394 140.138 42.3818 140.74L42.248 141.409C39.7732 140.874 37.8335 141.543 34.0878 142.947L33.2183 143.282C28.8037 144.954 24.9243 145.088 20.0415 143.817C15.5601 142.747 12.8846 145.489 12.8177 145.623Z" fill="#058E3F"/>
<path d="M16.5634 155.254C14.7574 155.254 13.4866 155.121 13.3528 155.121L13.4197 154.452C13.4866 154.452 19.5733 155.054 23.5196 153.582C24.1216 153.382 24.7236 153.114 25.3925 152.846C29.5395 151.174 35.76 148.699 42.9838 149.235L42.9169 149.903C35.8937 149.435 29.7401 151.91 25.66 153.515C24.9912 153.783 24.3223 154.05 23.7872 154.251C21.513 155.054 18.7038 155.254 16.5634 155.254Z" fill="#058E3F"/>
<path d="M19.424 144.885L13.9541 145.286L14.1007 147.287L19.5706 146.886L19.424 144.885Z" fill="#058E3F"/>
</svg>
