<svg width="178" height="26" viewBox="0 0 178 26" fill="none" xmlns="http://www.w3.org/2000/svg">
<path d="M45.9297 19.9233L44.2364 15.4888H36.6709L35.0543 19.9233H30.8434L38.4792 0.345047H42.3962L50.2492 19.9297H45.9297V19.9233ZM39.4952 7.75719L37.8786 12.1789H42.9649L41.3227 7.75719C41.1118 7.1885 40.9201 6.60703 40.754 6.00639C40.5879 5.41214 40.4792 4.92652 40.4281 4.54952H40.3195C40.1597 5.61661 39.885 6.6901 39.4952 7.75719Z" fill="#058E3F"/>
<path d="M56.8562 2.88179C56.4792 2.88179 56.1853 2.94569 55.9744 3.06709C55.7636 3.19489 55.6038 3.40575 55.508 3.70607C55.4121 4.00639 55.361 4.4345 55.361 4.99042V5.7508H58.1022V8.72843H55.361V19.9233H51.6102V8.72843H49.5399V5.7508H51.6102V4.88179C51.6102 3.91693 51.7252 3.09265 51.9489 2.38978C52.1789 1.69329 52.6262 1.11821 53.2971 0.670926C53.968 0.223642 54.9393 0 56.2045 0C56.6645 0 57.214 0.0447285 57.8402 0.134185C58.4664 0.223642 58.9648 0.319489 59.3291 0.415336L58.6198 3.20767C58.3195 3.09904 58.0064 3.01597 57.6869 2.95847C57.3674 2.90735 57.0926 2.88179 56.8562 2.88179Z" fill="#058E3F"/>
<path d="M65.7572 8.82428C64.8051 8.82428 64.0767 9.20766 63.5783 9.97444C63.0799 10.7412 62.8307 11.8275 62.8307 13.2332V19.9233H59.0799V5.75079H62.5559V7.75718H62.607C63.1055 6.92651 63.6358 6.33226 64.1981 5.97444C64.7604 5.61661 65.4377 5.4313 66.2301 5.4313C66.7093 5.4313 67.1502 5.48881 67.5463 5.59744C67.9425 5.70607 68.3323 5.85942 68.7157 6.0575L67.5144 9.39936C67.3163 9.26517 67.0416 9.13738 66.6901 9.00958C66.3323 8.88817 66.0256 8.82428 65.7572 8.82428Z" fill="#058E3F"/>
<path d="M69.4185 3.8147V0.345047H73.1693V3.82109H69.4185V3.8147ZM69.4185 19.9233V5.7508H73.1693V19.9233H69.4185Z" fill="#058E3F"/>
<path d="M81.7188 8.42173C80.7476 8.42173 80.0064 8.8115 79.4888 9.59106C78.9712 10.3706 78.7156 11.4569 78.7156 12.8435C78.7156 14.147 78.9712 15.1949 79.4888 15.9872C80.0064 16.7859 80.7731 17.1821 81.7891 17.1821C82.492 17.1821 83.0734 16.9457 83.5335 16.4792C83.9936 16.0128 84.2939 15.3419 84.4345 14.4665L88.1214 15.1054C87.7316 16.8498 86.9904 18.147 85.9105 18.984C84.8306 19.8275 83.3929 20.2492 81.6038 20.2492C80.1533 20.2492 78.9201 19.9233 77.9105 19.278C76.9009 18.6326 76.1405 17.7508 75.6357 16.6326C75.131 15.5144 74.8754 14.2428 74.8754 12.8179C74.8754 11.3482 75.1373 10.0575 75.6613 8.94569C76.1853 7.83387 76.9584 6.96486 77.9872 6.34505C79.0095 5.72524 80.2492 5.41853 81.6996 5.41853C83.3227 5.41853 84.6645 5.79553 85.7316 6.54313C86.7987 7.29074 87.5335 8.4409 87.9233 9.98722L84.2492 10.6582C84.0958 9.92972 83.8083 9.3738 83.3738 8.99042C82.9393 8.61342 82.3897 8.42173 81.7188 8.42173Z" fill="#058E3F"/>
<path d="M102.23 19.9233H98.5304C98.3451 19.5144 98.1917 18.9904 98.0767 18.3578C96.8243 19.623 95.3546 20.2556 93.6677 20.2556C92.7412 20.2556 91.9297 20.0767 91.2205 19.7189C90.5176 19.361 89.9745 18.8626 89.5911 18.2173C89.2077 17.5719 89.016 16.8371 89.016 16.0064C89.016 14.7476 89.4249 13.7508 90.2428 13.016C91.0607 12.2748 92.3259 11.7764 94.0384 11.508C95.7508 11.2396 96.9521 10.984 97.6422 10.7348V10.4665C97.6422 9.63579 97.4377 9.07349 97.0352 8.76039C96.6326 8.45368 96.032 8.30033 95.2396 8.30033C94.6134 8.30033 94.0959 8.4409 93.6741 8.72844C93.2524 9.01598 92.9393 9.46327 92.7284 10.0767L89.3099 9.55272C89.6869 8.1278 90.377 7.08627 91.393 6.42173C92.409 5.7572 93.7636 5.42493 95.4697 5.42493C96.8499 5.42493 97.9745 5.60384 98.8435 5.95528C99.7125 6.30672 100.358 6.86902 100.773 7.6294C101.189 8.39617 101.399 9.39937 101.399 10.6326V16.4153C101.399 17.0927 101.45 17.655 101.546 18.1086C101.642 18.5751 101.872 19.1757 102.23 19.9233ZM94.7732 13.8467C93.4377 14.115 92.7668 14.7668 92.7668 15.7955C92.7668 16.377 92.9329 16.8179 93.2588 17.131C93.5911 17.4441 94.0575 17.5975 94.6773 17.5975C95.2908 17.5975 95.8594 17.4441 96.377 17.131C96.7348 16.9201 96.9968 16.6901 97.1693 16.4537C97.3419 16.2173 97.4633 15.8978 97.5336 15.5016C97.6039 15.099 97.6422 14.5367 97.6422 13.8211V13.1374C96.984 13.3802 96.032 13.6166 94.7732 13.8467Z" fill="#058E3F"/>
<path d="M111.623 13.6933C112.032 14.9137 112.307 15.7508 112.441 16.2045C112.562 16.6326 112.652 16.9521 112.709 17.1693H112.76C112.811 17.0096 112.965 16.5431 113.214 15.7828L113.802 14.0192L118.371 0.677319H121.923V20.262H119.463V3.86582H119.412L113.776 20.2556H111.45L105.84 3.59745H105.757V20.2556H103.297V0.670929H107.265L111.623 13.6933Z" fill="#222222"/>
<path d="M123.93 13.1757C123.93 11.6358 124.204 10.3067 124.76 9.19489C125.31 8.08307 126.089 7.23323 127.093 6.64537C128.096 6.05751 129.252 5.76358 130.575 5.76358C131.904 5.76358 133.067 6.05112 134.064 6.61981C135.061 7.1885 135.84 8.03195 136.396 9.13738C136.952 10.2492 137.233 11.5847 137.233 13.1502C137.233 14.7093 136.952 16.0447 136.39 17.1629C135.827 18.2812 135.048 19.131 134.045 19.7125C133.042 20.2939 131.885 20.5879 130.575 20.5879C129.278 20.5879 128.128 20.3067 127.131 19.738C126.134 19.1757 125.355 18.3323 124.786 17.2204C124.211 16.1086 123.93 14.7604 123.93 13.1757ZM130.556 7.73802C129.757 7.73802 129.042 7.94249 128.409 8.35783C127.783 8.77316 127.284 9.38658 126.926 10.2045C126.569 11.0224 126.383 12.0128 126.383 13.1757C126.383 14.3451 126.562 15.3355 126.92 16.147C127.278 16.9649 127.77 17.5783 128.396 17.9936C129.022 18.4089 129.744 18.6134 130.569 18.6134C131.412 18.6134 132.153 18.4026 132.786 17.9744C133.419 17.5463 133.904 16.9265 134.249 16.1022C134.594 15.2843 134.76 14.3003 134.76 13.1502C134.76 11.9936 134.581 11.0096 134.224 10.1981C133.866 9.38658 133.374 8.77316 132.741 8.36422C132.115 7.94249 131.38 7.73802 130.556 7.73802Z" fill="#222222"/>
<path d="M148.096 20.2556V10.984C148.096 9.94888 147.84 9.16933 147.323 8.63259C146.805 8.09585 146.077 7.83387 145.131 7.83387C143.936 7.83387 143.01 8.1917 142.345 8.91374C141.681 9.63579 141.348 10.7859 141.348 12.3578V20.2556H138.946V6.08307H141.188V8.05751C141.661 7.34825 142.275 6.78594 143.022 6.377C143.776 5.96805 144.607 5.76358 145.527 5.76358C147.163 5.76358 148.403 6.18531 149.24 7.03515C150.077 7.8786 150.498 9.09265 150.498 10.6709V20.262H148.096V20.2556Z" fill="#222222"/>
<path d="M158.958 18.6134C159.866 18.6134 160.652 18.3451 161.316 17.8147C161.981 17.278 162.441 16.5751 162.696 15.6933L165.048 16.0511C164.645 17.4824 163.898 18.6006 162.799 19.3994C161.7 20.1981 160.377 20.5943 158.837 20.5943C157.482 20.5943 156.307 20.2939 155.304 19.6997C154.3 19.1054 153.527 18.2556 152.984 17.1566C152.441 16.0575 152.166 14.7668 152.166 13.2907C152.166 11.77 152.435 10.4409 152.965 9.30991C153.502 8.17892 154.268 7.30352 155.272 6.6901C156.275 6.07668 157.45 5.76997 158.805 5.76997C160.115 5.76997 161.252 6.0639 162.224 6.64537C163.195 7.22684 163.942 8.08307 164.466 9.21406C164.99 10.3451 165.252 11.7061 165.252 13.2907V13.7828H154.645C154.696 14.7987 154.907 15.6677 155.272 16.3962C155.636 17.1246 156.134 17.6741 156.76 18.0511C157.399 18.4217 158.128 18.6134 158.958 18.6134ZM158.78 7.72524C158.064 7.72524 157.425 7.89138 156.856 8.23004C156.288 8.5687 155.815 9.04793 155.444 9.66135C155.073 10.2748 154.837 10.9904 154.728 11.7955H162.716C162.575 10.4856 162.16 9.48243 161.482 8.77956C160.805 8.07668 159.904 7.72524 158.78 7.72524Z" fill="#222222"/>
<path d="M170.486 14.2556C170.76 15.0224 170.958 15.6038 171.08 16.0064C171.201 16.409 171.342 16.9265 171.502 17.5719H171.553C171.732 16.7796 171.872 16.2173 171.974 15.885C172.077 15.5527 172.319 14.8562 172.703 13.8083L175.521 6.08947H177.968L172.224 21.3099C171.764 22.5368 171.316 23.4888 170.888 24.1598C170.46 24.8307 170 25.3035 169.514 25.5847C169.022 25.8594 168.441 26 167.764 26C167.514 26 167.188 25.9681 166.786 25.9106C166.383 25.8531 166.045 25.7955 165.757 25.7316L166.249 23.6997C166.626 23.8403 166.984 23.9106 167.329 23.9106C167.847 23.9106 168.268 23.7828 168.607 23.5208C168.939 23.2652 169.214 22.9201 169.425 22.4856C169.636 22.0511 169.827 21.6038 170.006 21.131C170.185 20.6582 170.294 20.377 170.326 20.2748L164.946 6.07669H167.54L170.486 14.2556Z" fill="#222222"/>
<path d="M23.2077 0.345047V16.6454L22.3067 15.5719L20.3067 13.1885L18.6518 11.2204L18.147 10.6198L17.4313 11.2204H17.4058V11.246L16.0192 12.4026L15.0288 11.2204L14.5048 10.5942L11.6038 7.13738L11.3802 6.8754V6.86901L11.6038 6.68371L13.508 5.08626L11.6038 2.81789L11.3482 2.51757L9.52716 0.345047H23.2077Z" fill="#FFA630"/>
<path d="M22.3323 19.9233H12.901L11.6038 18.377L10.4856 17.0479L9.2524 15.5719H5.80192V19.9233H0V0.345047H5.89776L7.72524 2.51757L8.70288 3.68051L11.3738 6.86901L11.3802 6.8754L11.6038 7.13738L14.5048 10.5942L15.0288 11.2204L16.0192 12.4026L17.4058 14.0575L18.6773 15.5719L20.3067 17.508L22.3323 19.9233Z" fill="#058E3F"/>
</svg>
