<svg width="219" height="32" viewBox="0 0 219 32" fill="none" xmlns="http://www.w3.org/2000/svg">
<path d="M28.5633 0V20.0619L27.4544 18.7407L24.9929 15.8073L22.956 13.3851L22.3347 12.6459L21.4539 13.3851H21.4224V13.4166L19.7159 14.84L18.4969 13.3851L17.852 12.6144L14.2816 8.35979L14.0064 8.03735V8.02949L14.2816 7.80143L16.6252 5.83534L14.2816 3.0435L13.967 2.67388L11.7257 0H28.5633Z" fill="white"/>
<path d="M27.4859 24.0963H15.8781L14.2816 22.1932L12.9054 20.5574L11.3876 18.7407H7.14082V24.0963H0V0H7.25879L9.50799 2.67388L10.7112 4.10519L13.9985 8.02949L14.0064 8.03736L14.2816 8.35979L17.8521 12.6144L18.4969 13.3851L19.7159 14.84L21.4225 16.8769L22.9875 18.7407L24.9929 21.1236L27.4859 24.0963Z" fill="white"/>
<path d="M56.131 24.5209L54.0469 19.063H44.7356L42.7459 24.5209H37.5633L46.9612 0.424561H51.782L61.4473 24.5288H56.131V24.5209ZM48.2116 9.5472L46.2219 14.9893H52.4819L50.4608 9.5472C50.2013 8.84727 49.9654 8.13161 49.7609 7.39237C49.5564 6.66098 49.4227 6.06329 49.3598 5.5993H49.2261C49.0295 6.91264 48.6913 8.23385 48.2116 9.5472Z" fill="white"/>
<path d="M69.579 3.54682C69.115 3.54682 68.7533 3.62546 68.4937 3.77488C68.2342 3.93217 68.0376 4.19169 67.9196 4.56132C67.8017 4.93094 67.7388 5.45785 67.7388 6.14205V7.07791H71.1126V10.7427H67.7388V24.521H63.1224V10.7427H60.5743V7.07791H63.1224V6.00836C63.1224 4.82084 63.2639 3.80634 63.5392 2.94126C63.8223 2.08405 64.3728 1.37626 65.1986 0.825756C66.0243 0.275252 67.2197 0 68.7768 0C69.3431 0 70.0194 0.0550504 70.7901 0.165151C71.5608 0.275252 72.1742 0.393217 72.6225 0.511182L71.7496 3.9479C71.3799 3.81421 70.9946 3.71197 70.6014 3.64119C70.2082 3.57827 69.87 3.54682 69.579 3.54682Z" fill="white"/>
<path d="M80.534 10.8608C79.3622 10.8608 78.4657 11.3326 77.8523 12.2764C77.2389 13.2201 76.9322 14.557 76.9322 16.2872V24.5211H72.3158V7.07803H76.594V9.54744H76.6569C77.2703 8.52507 77.9231 7.79369 78.6151 7.35328C79.3072 6.91288 80.1408 6.68481 81.116 6.68481C81.7058 6.68481 82.2485 6.75559 82.736 6.88929C83.2236 7.02298 83.7034 7.21172 84.1752 7.45552L82.6967 11.5686C82.4529 11.4034 82.1148 11.2461 81.6822 11.0888C81.2418 10.9394 80.8643 10.8608 80.534 10.8608Z" fill="white"/>
<path d="M85.0403 4.6949V0.424561H89.6567V4.70276H85.0403V4.6949ZM85.0403 24.5209V7.07779H89.6567V24.5209H85.0403Z" fill="white"/>
<path d="M100.179 10.3652C98.9838 10.3652 98.0715 10.8449 97.4345 11.8044C96.7975 12.7638 96.4829 14.1007 96.4829 15.8073C96.4829 17.4116 96.7975 18.7014 97.4345 19.6766C98.0715 20.6596 99.0153 21.1472 100.266 21.1472C101.131 21.1472 101.846 20.8562 102.413 20.2821C102.979 19.708 103.349 18.8823 103.522 17.8049L108.059 18.5913C107.58 20.7383 106.667 22.3347 105.338 23.3649C104.009 24.403 102.24 24.9221 100.038 24.9221C98.2524 24.9221 96.7346 24.521 95.492 23.7267C94.2495 22.9324 93.3136 21.8471 92.6923 20.4709C92.071 19.0946 91.7565 17.5296 91.7565 15.7759C91.7565 13.9671 92.0789 12.3785 92.7238 11.0101C93.3687 9.64167 94.3202 8.57212 95.5864 7.80927C96.8447 7.04643 98.3704 6.66895 100.156 6.66895C102.153 6.66895 103.805 7.13294 105.118 8.05307C106.431 8.9732 107.336 10.3888 107.815 12.2919L103.293 13.1177C103.105 12.2212 102.751 11.537 102.216 11.0651C101.681 10.6011 101.005 10.3652 100.179 10.3652Z" fill="white"/>
<path d="M125.424 24.5209H120.87C120.642 24.0176 120.453 23.3728 120.312 22.5942C118.771 24.1513 116.962 24.9299 114.886 24.9299C113.745 24.9299 112.746 24.7097 111.873 24.2693C111.008 23.8289 110.34 23.2155 109.868 22.4212C109.396 21.6269 109.16 20.7225 109.16 19.7001C109.16 18.1508 109.664 16.924 110.67 16.0196C111.677 15.1073 113.234 14.4939 115.342 14.1636C117.449 13.8333 118.928 13.5187 119.777 13.212V12.8817C119.777 11.8594 119.525 11.1673 119.03 10.7819C118.535 10.4045 117.795 10.2157 116.82 10.2157C116.049 10.2157 115.412 10.3887 114.893 10.7426C114.374 11.0965 113.989 11.647 113.729 12.402L109.522 11.7571C109.986 10.0034 110.835 8.72149 112.086 7.9036C113.336 7.0857 115.003 6.67676 117.103 6.67676C118.802 6.67676 120.186 6.89696 121.256 7.3295C122.325 7.76204 123.119 8.4541 123.631 9.38996C124.142 10.3337 124.401 11.5684 124.401 13.0862V20.2034C124.401 21.037 124.464 21.7291 124.582 22.2875C124.7 22.8616 124.983 23.6008 125.424 24.5209ZM116.246 17.042C114.602 17.3723 113.777 18.1744 113.777 19.4406C113.777 20.1562 113.981 20.6989 114.382 21.0842C114.791 21.4696 115.365 21.6583 116.128 21.6583C116.883 21.6583 117.583 21.4696 118.22 21.0842C118.66 20.8247 118.983 20.5416 119.195 20.2506C119.408 19.9596 119.557 19.5664 119.643 19.0788C119.73 18.5834 119.777 17.8913 119.777 17.0105V16.169C118.967 16.4679 117.795 16.7588 116.246 17.042Z" fill="white"/>
<path d="M136.984 16.8532C137.488 18.3553 137.826 19.3855 137.991 19.9439C138.14 20.4708 138.25 20.864 138.321 21.1314H138.384C138.447 20.9348 138.636 20.3607 138.943 19.4249L139.666 17.2543L145.289 0.833548H149.662V24.9378H146.634V4.75785H146.571L139.635 24.9299H136.772L129.867 4.42755H129.765V24.9299H126.737V0.825684H131.621L136.984 16.8532Z" fill="white"/>
<path d="M152.131 16.2164C152.131 14.3211 152.469 12.6853 153.153 11.3169C153.83 9.94851 154.789 8.90255 156.024 8.17903C157.259 7.45551 158.682 7.09375 160.31 7.09375C161.946 7.09375 163.377 7.44765 164.604 8.14757C165.831 8.8475 166.79 9.88559 167.474 11.2461C168.159 12.6145 168.505 14.2582 168.505 16.1849C168.505 18.1038 168.159 19.7475 167.467 21.1237C166.774 22.5 165.815 23.5459 164.58 24.2616C163.346 24.9773 161.922 25.339 160.31 25.339C158.713 25.339 157.298 24.993 156.071 24.2931C154.844 23.601 153.885 22.5629 153.185 21.1945C152.477 19.8261 152.131 18.1667 152.131 16.2164ZM160.286 9.52383C159.303 9.52383 158.423 9.77549 157.644 10.2867C156.873 10.7979 156.26 11.5528 155.819 12.5595C155.379 13.5661 155.151 14.7851 155.151 16.2164C155.151 17.6556 155.371 18.8745 155.812 19.8733C156.252 20.8799 156.858 21.6349 157.628 22.1461C158.399 22.6573 159.288 22.9089 160.302 22.9089C161.34 22.9089 162.252 22.6494 163.031 22.1225C163.81 21.5956 164.407 20.8328 164.832 19.8183C165.257 18.8116 165.461 17.6005 165.461 16.1849C165.461 14.7615 165.241 13.5504 164.8 12.5516C164.36 11.5528 163.755 10.7979 162.976 10.2945C162.205 9.77549 161.301 9.52383 160.286 9.52383Z" fill="white"/>
<path d="M181.874 24.9301V13.5189C181.874 12.2449 181.559 11.2854 180.922 10.6248C180.285 9.96423 179.389 9.6418 178.225 9.6418C176.754 9.6418 175.614 10.0822 174.796 10.9709C173.978 11.8595 173.569 13.2751 173.569 15.2097V24.9301H170.612V7.48697H173.373V9.91705C173.955 9.04411 174.71 8.35204 175.63 7.84873C176.558 7.34541 177.58 7.09375 178.713 7.09375C180.726 7.09375 182.251 7.6128 183.282 8.65875C184.312 9.69685 184.831 11.1911 184.831 13.1336V24.9379H181.874V24.9301Z" fill="white"/>
<path d="M195.243 22.9089C196.36 22.9089 197.327 22.5786 198.145 21.9258C198.963 21.2652 199.529 20.4002 199.844 19.3149L202.738 19.7553C202.243 21.5169 201.322 22.8932 199.97 23.8762C198.617 24.8592 196.989 25.3468 195.094 25.3468C193.427 25.3468 191.98 24.9772 190.745 24.2458C189.51 23.5144 188.559 22.4685 187.89 21.1158C187.222 19.7631 186.884 18.1746 186.884 16.3579C186.884 14.4862 187.214 12.8504 187.867 11.4584C188.527 10.0664 189.471 8.989 190.706 8.23403C191.94 7.47905 193.387 7.10156 195.055 7.10156C196.667 7.10156 198.067 7.46332 199.262 8.17898C200.457 8.89463 201.378 9.94845 202.022 11.3404C202.667 12.7324 202.99 14.4075 202.99 16.3579V16.9634H189.935C189.998 18.2139 190.257 19.2834 190.706 20.18C191.154 21.0765 191.767 21.7528 192.538 22.2168C193.324 22.673 194.221 22.9089 195.243 22.9089ZM195.023 9.50805C194.142 9.50805 193.356 9.71252 192.656 10.1293C191.956 10.5461 191.374 11.136 190.918 11.8909C190.462 12.6459 190.171 13.5267 190.037 14.5176H199.868C199.695 12.9054 199.183 11.6707 198.35 10.8057C197.516 9.94059 196.407 9.50805 195.023 9.50805Z" fill="white"/>
<path d="M209.431 17.5454C209.769 18.4891 210.013 19.2047 210.162 19.7002C210.311 20.1956 210.484 20.8327 210.681 21.627H210.744C210.964 20.6518 211.137 19.9597 211.263 19.5508C211.389 19.1418 211.688 18.2846 212.16 16.9949L215.628 7.49473H218.64L211.57 26.2276C211.003 27.7375 210.453 28.9093 209.926 29.7351C209.399 30.5608 208.833 31.1428 208.235 31.4888C207.63 31.827 206.914 32 206.08 32C205.774 32 205.373 31.9607 204.877 31.8899C204.382 31.8191 203.965 31.7484 203.611 31.6697L204.217 29.1689C204.681 29.3419 205.121 29.4284 205.546 29.4284C206.183 29.4284 206.702 29.2711 207.119 28.9487C207.527 28.6341 207.866 28.2094 208.125 27.6746C208.385 27.1399 208.621 26.5894 208.841 26.0074C209.061 25.4254 209.195 25.0794 209.234 24.9536L202.612 7.479H205.805L209.431 17.5454Z" fill="white"/>
</svg>
