<svg width="24" height="20" viewBox="0 0 24 20" fill="none" xmlns="http://www.w3.org/2000/svg">
<path d="M23.2077 0.345047V16.6454L22.3067 15.5719L20.3067 13.1885L18.6518 11.2204L18.147 10.6198L17.4313 11.2204H17.4058V11.246L16.0192 12.4026L15.0288 11.2204L14.5048 10.5942L11.6038 7.13738L11.3802 6.8754V6.86901L11.6038 6.68371L13.508 5.08626L11.6038 2.81789L11.3482 2.51757L9.52716 0.345047H23.2077Z" fill="#FFA630"/>
<path d="M22.3323 19.9233H12.901L11.6038 18.377L10.4856 17.0479L9.2524 15.5719H5.80192V19.9233H0V0.345047H5.89776L7.72524 2.51757L8.70288 3.68051L11.3738 6.86901L11.3802 6.8754L11.6038 7.13738L14.5048 10.5942L15.0288 11.2204L16.0192 12.4026L17.4058 14.0575L18.6773 15.5719L20.3067 17.508L22.3323 19.9233Z" fill="#058E3F"/>
</svg>
